<svg width="2093" height="1077" viewBox="0 0 2093 1077" fill="none" xmlns="http://www.w3.org/2000/svg">
<g opacity="0.5">
<path d="M525.508 668.567C529.191 699.649 547.222 727.575 576.75 751.46C606.279 775.346 647.284 795.17 696.848 810.035C795.975 839.766 929.251 849.638 1073.17 832.586C1217.1 815.533 1344.38 774.789 1433.81 722.717C1478.53 696.68 1513.77 667.823 1536.9 637.698C1560.02 607.574 1571.03 576.208 1567.35 545.126C1563.66 514.043 1545.63 486.117 1516.11 462.233C1486.58 438.347 1445.57 418.523 1396.01 403.657C1296.88 373.927 1163.61 364.054 1019.68 381.107C875.758 398.159 748.479 438.904 659.045 490.976C614.327 517.012 579.09 545.869 555.96 575.995C532.832 606.118 521.826 637.485 525.508 668.567Z" stroke="url(#paint0_linear_389_36)" stroke-width="0.884533"/>
<path d="M289.367 696.546C294.725 741.772 320.961 782.39 363.89 817.115C406.821 851.842 466.425 880.654 538.453 902.257C682.509 945.463 876.179 959.808 1085.31 935.029C1294.44 910.251 1479.4 851.045 1609.37 775.371C1674.35 737.534 1725.57 695.591 1759.2 651.793C1792.83 607.998 1808.84 562.373 1803.49 517.147C1798.13 471.92 1771.89 431.302 1728.96 396.577C1686.03 361.851 1626.43 333.038 1554.4 311.435C1410.34 268.229 1216.67 253.884 1007.54 278.663C798.41 303.442 613.455 362.648 483.484 438.321C418.498 476.158 367.278 518.102 333.651 561.899C300.025 605.695 284.008 651.319 289.367 696.546Z" stroke="url(#paint1_linear_389_36)" stroke-width="0.884533"/>
<path d="M2.02937 730.591C9.42725 793.028 45.6455 849.091 104.881 897.006C164.12 944.923 246.355 984.673 345.718 1014.47C544.445 1074.08 811.602 1093.86 1100.08 1059.68C1388.56 1025.5 1643.69 943.835 1822.99 839.442C1912.64 787.245 1983.31 729.379 2029.71 668.945C2076.11 608.513 2098.22 545.54 2090.82 483.102C2083.43 420.664 2047.21 364.602 1987.97 316.687C1928.73 268.769 1846.5 229.019 1747.13 199.218C1548.41 139.615 1281.25 119.829 992.772 154.009C704.294 188.189 449.158 269.858 269.862 374.251C180.214 426.447 109.545 484.314 63.1444 544.748C16.7459 605.179 -5.36851 668.153 2.02937 730.591Z" stroke="url(#paint2_linear_389_36)" stroke-width="0.884533"/>
</g>
<defs>
<linearGradient id="paint0_linear_389_36" x1="1534.71" y1="523.134" x2="613.688" y2="771.271" gradientUnits="userSpaceOnUse">
<stop stop-color="white" stop-opacity="0.52"/>
<stop offset="0.491388" stop-color="#856F6F" stop-opacity="0.36"/>
<stop offset="1" stop-color="#3F3F3F"/>
</linearGradient>
<linearGradient id="paint1_linear_389_36" x1="1755.86" y1="485.217" x2="417.685" y2="845.745" gradientUnits="userSpaceOnUse">
<stop stop-color="white" stop-opacity="0.52"/>
<stop offset="0.491388" stop-color="#856F6F" stop-opacity="0.36"/>
<stop offset="1" stop-color="#3F3F3F"/>
</linearGradient>
<linearGradient id="paint2_linear_389_36" x1="2024.96" y1="439.081" x2="179.188" y2="936.365" gradientUnits="userSpaceOnUse">
<stop stop-color="white" stop-opacity="0.52"/>
<stop offset="0.491388" stop-color="#856F6F" stop-opacity="0.36"/>
<stop offset="1" stop-color="#3F3F3F"/>
</linearGradient>
</defs>
</svg>
