<svg width="869" height="890" viewBox="0 0 869 890" fill="none" xmlns="http://www.w3.org/2000/svg">
<g opacity="0.5">
<path opacity="0.0344828" d="M110.67 682.814C114.85 687.795 121.151 690.884 129.436 692.126C137.727 693.37 147.951 692.754 159.874 690.371C183.719 685.605 214.183 673.805 249.206 655.988C319.241 620.36 407.338 560.759 496.88 485.623C586.423 410.488 660.416 334.079 707.665 271.295C731.293 239.898 748.204 211.946 757.038 189.291C761.455 177.963 763.837 168.001 764.052 159.62C764.267 151.246 762.32 144.504 758.14 139.522C753.96 134.541 747.659 131.453 739.374 130.21C731.083 128.967 720.859 129.582 708.936 131.965C685.091 136.731 654.627 148.531 619.604 166.349C549.569 201.977 461.472 261.578 371.93 336.713C282.387 411.848 208.394 488.257 161.145 551.041C137.517 582.439 120.606 610.39 111.772 633.045C107.354 644.373 104.973 654.335 104.758 662.717C104.543 671.091 106.49 677.833 110.67 682.814Z" stroke="white" stroke-opacity="0.36" stroke-width="1.70355"/>
<path opacity="0.0689655" d="M135.578 713.375C140.176 717.974 146.722 720.501 155.083 721.016C163.451 721.533 173.583 720.029 185.253 716.616C208.592 709.789 237.911 695.379 271.248 674.577C337.911 632.98 420.478 565.928 503.132 483.275C585.785 400.621 652.838 318.054 694.434 251.391C715.236 218.054 729.647 188.735 736.473 165.396C739.886 153.726 741.39 143.594 740.874 135.226C740.358 126.865 737.831 120.319 733.233 115.72C728.635 111.122 722.088 108.595 713.727 108.079C705.359 107.563 695.227 109.067 683.557 112.48C660.218 119.306 630.899 133.717 597.562 154.519C530.899 196.115 448.332 263.168 365.678 345.821C283.025 428.475 215.973 511.042 174.376 577.705C153.574 611.042 139.164 640.361 132.338 663.7C128.924 675.37 127.42 685.502 127.937 693.87C128.452 702.231 130.979 708.777 135.578 713.375Z" stroke="white" stroke-opacity="0.36" stroke-width="1.70355"/>
<path opacity="0.103448" d="M162.76 741.664C167.741 745.844 174.483 747.791 182.857 747.576C191.238 747.361 201.2 744.98 212.528 740.562C235.184 731.728 263.135 714.817 294.533 691.189C357.316 643.94 433.725 569.947 508.861 480.404C583.996 390.862 643.597 302.765 679.225 232.73C697.043 197.707 708.843 167.243 713.609 143.398C715.992 131.475 716.607 121.251 715.363 112.96C714.121 104.676 711.033 98.3741 706.051 94.1942C701.07 90.0144 694.328 88.0675 685.954 88.2823C677.573 88.4974 667.611 90.8786 656.283 95.296C633.627 104.13 605.676 121.041 574.278 144.669C511.495 191.918 435.086 265.911 359.95 355.454C284.815 444.997 225.214 533.093 189.586 603.128C171.768 638.152 159.968 668.615 155.202 692.46C152.819 704.383 152.204 714.607 153.448 722.898C154.69 731.183 157.778 737.484 162.76 741.664Z" stroke="white" stroke-opacity="0.36" stroke-width="1.70355"/>
<path opacity="0.137931" d="M192.008 767.489C197.335 771.219 204.221 772.57 212.544 771.627C220.875 770.682 230.591 767.441 241.491 762.054C263.29 751.278 289.662 731.996 318.881 705.721C377.307 653.18 446.977 572.809 514.022 477.059C581.067 381.308 632.763 288.352 662.152 215.479C676.849 179.036 685.949 147.659 688.619 123.49C689.953 111.404 689.675 101.166 687.714 93.0143C685.754 84.8699 682.128 78.8615 676.802 75.1317C671.475 71.402 664.589 70.05 656.265 70.9939C647.935 71.9387 638.218 75.1791 627.318 80.5669C605.519 91.3421 579.148 110.625 549.929 136.9C491.502 189.44 421.833 269.811 354.788 365.562C287.743 461.312 236.047 554.269 206.658 627.142C191.961 663.585 182.861 694.961 180.191 719.131C178.856 731.216 179.135 741.455 181.096 749.606C183.056 757.751 186.681 763.759 192.008 767.489Z" stroke="white" stroke-opacity="0.36" stroke-width="1.70355"/>
<path opacity="0.172414" d="M223.102 790.678C228.734 793.93 235.711 794.676 243.921 793.01C252.138 791.343 261.535 787.268 271.923 780.951C292.7 768.317 317.291 746.809 344.108 718.088C397.734 660.655 460.133 574.517 518.578 473.288C577.023 372.058 620.42 274.95 643.346 199.793C654.811 162.208 661.142 130.158 661.695 105.847C661.971 93.6916 660.802 83.5161 658.137 75.5667C655.475 67.6241 651.34 61.9546 645.708 58.7033C640.077 55.4519 633.099 54.7053 624.889 56.3711C616.673 58.0383 607.276 62.1132 596.887 68.4305C576.11 81.0646 551.519 102.572 524.702 131.294C471.077 188.727 408.677 274.864 350.232 376.094C291.788 477.323 248.39 574.431 225.464 649.588C213.999 687.174 207.669 719.224 207.116 743.534C206.839 755.69 208.009 765.865 210.673 773.815C213.335 781.757 217.471 787.427 223.102 790.678Z" stroke="white" stroke-opacity="0.36" stroke-width="1.70355"/>
<path opacity="0.206897" d="M255.804 811.083C261.697 813.831 268.713 813.967 276.747 811.592C284.787 809.215 293.793 804.336 303.592 797.137C323.188 782.741 345.811 759.172 370.023 728.222C418.439 666.334 473.093 575.086 522.493 469.148C571.893 363.21 606.661 262.689 622.95 185.819C631.095 147.378 634.608 114.898 633.04 90.6319C632.256 78.4984 630.205 68.4636 626.857 60.7766C623.513 53.0963 618.899 47.8088 613.006 45.0606C607.112 42.3125 600.096 42.1768 592.063 44.5518C584.023 46.9288 575.017 51.8072 565.218 59.0059C545.621 73.4028 522.999 96.9716 498.787 127.921C450.371 189.809 395.717 281.058 346.317 386.996C296.917 492.934 262.148 593.455 245.86 670.324C237.715 708.766 234.201 741.245 235.769 765.511C236.553 777.645 238.605 787.68 241.952 795.367C245.297 803.047 249.91 808.335 255.804 811.083Z" stroke="white" stroke-opacity="0.36" stroke-width="1.70355"/>
<path opacity="0.241379" d="M289.865 828.573C295.975 830.797 302.977 830.321 310.772 827.255C318.575 824.186 327.121 818.542 336.255 810.516C354.523 794.466 375.005 769.015 396.428 736.073C439.265 670.201 485.759 574.537 525.737 464.696C565.716 354.856 591.592 251.687 601.118 173.69C605.882 134.685 606.551 102.023 602.875 77.9858C601.036 65.9668 598.117 56.149 594.113 48.783C590.112 41.4234 585.055 36.5581 578.944 34.3341C572.834 32.11 565.833 32.5864 558.037 35.6525C550.235 38.7211 541.688 44.3659 532.554 52.3912C514.287 68.4413 493.804 93.8921 472.382 126.834C429.544 192.707 383.051 288.371 343.072 398.211C303.093 508.052 277.218 611.22 267.691 689.217C262.927 728.222 262.258 760.884 265.935 784.922C267.773 796.941 270.692 806.758 274.696 814.124C278.697 821.484 283.754 826.349 289.865 828.573Z" stroke="white" stroke-opacity="0.36" stroke-width="1.70355"/>
<path opacity="0.275862" d="M325.027 843.039C331.308 844.722 338.241 843.637 345.74 839.903C353.245 836.166 361.267 829.798 369.667 821.007C386.466 803.426 404.652 776.287 423.122 741.603C460.055 672.248 498.034 572.895 528.288 459.988C558.541 347.081 575.326 242.05 578.019 163.52C579.365 124.248 577.185 91.6518 571.427 68.0266C568.548 56.2135 564.785 46.6874 560.154 39.6985C555.527 32.7155 550.065 28.3096 543.784 26.6266C537.503 24.9435 530.569 26.0283 523.071 29.7621C515.566 33.4991 507.543 39.8673 499.144 48.6582C482.344 66.2393 464.158 93.3784 445.688 128.062C408.755 197.417 370.776 296.77 340.523 409.677C310.269 522.584 293.484 627.615 290.792 706.145C289.445 745.417 291.625 778.013 297.383 801.639C300.262 813.452 304.025 822.978 308.657 829.967C313.284 836.95 318.746 841.356 325.027 843.039Z" stroke="white" stroke-opacity="0.36" stroke-width="1.70355"/>
<path opacity="0.310345" d="M361.021 854.399C367.425 855.528 374.237 853.843 381.382 849.47C388.533 845.093 395.969 838.05 403.571 828.56C418.774 809.582 434.525 780.961 449.902 744.8C480.65 672.489 509.826 570.205 530.123 455.091C550.421 339.977 557.989 233.882 553.826 155.417C551.745 116.177 546.732 83.8944 538.937 60.8609C535.04 49.3437 530.46 40.1819 525.238 33.6232C520.019 27.0701 514.194 23.1569 507.79 22.0278C501.387 20.8986 494.574 22.5835 487.43 26.9566C480.279 31.3335 472.842 38.3767 465.24 47.8662C450.038 66.8445 434.286 95.4654 418.909 131.627C388.161 203.937 358.986 306.222 338.688 421.336C318.39 536.45 310.823 642.544 314.985 721.01C317.067 760.25 322.079 792.532 329.874 815.566C333.772 827.083 338.351 836.245 343.574 842.803C348.792 849.357 354.617 853.27 361.021 854.399Z" stroke="white" stroke-opacity="0.36" stroke-width="1.70355"/>
<path opacity="0.344828" d="M397.572 862.592C404.05 863.159 410.69 860.886 417.426 855.907C424.168 850.924 430.963 843.259 437.709 833.143C451.199 812.912 464.397 783.027 476.563 745.663C500.892 670.948 521.042 566.51 531.229 450.065C541.417 333.62 539.709 227.27 528.724 149.465C523.23 110.556 515.423 78.8336 505.65 56.5672C500.764 45.4335 495.403 36.7056 489.629 30.6271C483.859 24.5537 477.715 21.1631 471.237 20.5964C464.759 20.0296 458.12 22.3018 451.384 27.2811C444.641 32.2646 437.847 39.929 431.101 50.045C417.61 70.2761 404.413 100.161 392.247 137.525C367.918 212.24 347.768 316.678 337.58 433.123C327.393 549.568 329.101 655.919 340.086 733.723C345.58 772.632 353.387 804.355 363.16 826.621C368.046 837.755 373.407 846.483 379.181 852.561C384.95 858.635 391.094 862.025 397.572 862.592Z" stroke="white" stroke-opacity="0.36" stroke-width="1.70355"/>
<path opacity="0.37931" d="M434.405 867.582C440.908 867.582 447.324 864.74 453.601 859.193C459.883 853.64 465.984 845.413 471.822 834.748C483.499 813.418 494.041 782.496 502.905 744.214C520.629 667.663 531.6 561.866 531.6 444.976C531.6 328.087 520.629 222.29 502.905 145.739C494.041 107.456 483.499 76.5349 471.822 55.205C465.984 44.5396 459.883 36.3121 453.601 30.7599C447.324 25.2125 440.908 22.3703 434.405 22.3703C427.903 22.3703 421.487 25.2125 415.21 30.7599C408.928 36.3121 402.827 44.5396 396.989 55.205C385.312 76.5349 374.77 107.456 365.906 145.739C348.182 222.29 337.211 328.087 337.211 444.976C337.211 561.866 348.182 667.663 365.906 744.214C374.77 782.496 385.312 813.418 396.989 834.748C402.827 845.413 408.928 853.64 415.21 859.193C421.487 864.74 427.903 867.582 434.405 867.582Z" stroke="white" stroke-opacity="0.36" stroke-width="1.70355"/>
<path opacity="0.413793" d="M471.237 869.356C477.715 868.789 483.859 865.399 489.629 859.325C495.403 853.247 500.764 844.519 505.65 833.385C515.423 811.119 523.23 779.396 528.724 740.487C539.709 662.682 541.417 556.332 531.229 439.887C521.042 323.442 500.892 219.004 476.563 144.289C464.397 106.925 451.2 77.0401 437.709 56.8089C430.963 46.693 424.168 39.0285 417.426 34.045C410.69 29.0658 404.05 26.7936 397.572 27.3603C391.094 27.9271 384.951 31.3177 379.181 37.391C373.407 43.4696 368.046 52.1975 363.16 63.3311C353.387 85.5976 345.58 117.32 340.086 156.229C329.101 234.034 327.393 340.384 337.58 456.829C347.768 573.274 367.918 677.712 392.247 752.427C404.413 789.791 417.61 819.676 431.101 839.907C437.847 850.023 444.641 857.688 451.384 862.671C458.12 867.65 464.76 869.923 471.237 869.356Z" stroke="white" stroke-opacity="0.36" stroke-width="1.70355"/>
<path opacity="0.448276" d="M507.789 867.925C514.193 866.796 520.018 862.882 525.237 856.329C530.459 849.771 535.038 840.609 538.936 829.092C546.731 806.058 551.744 773.776 553.825 734.536C557.987 656.07 550.42 549.975 530.122 434.862C509.825 319.748 480.649 217.463 449.901 145.153C434.524 108.991 418.773 80.3704 403.57 61.392C395.968 51.9025 388.532 44.8594 381.381 40.4825C374.236 36.1093 367.424 34.4244 361.02 35.5536C354.616 36.6828 348.791 40.596 343.573 47.1491C338.35 53.7077 333.771 62.8696 329.873 74.3868C322.078 97.4203 317.065 129.702 314.984 168.942C310.822 247.408 318.389 353.503 338.687 468.617C358.985 583.731 388.16 686.015 418.908 758.326C434.285 794.487 450.036 823.108 465.239 842.086C472.841 851.576 480.278 858.619 487.429 862.996C494.573 867.369 501.386 869.054 507.789 867.925Z" stroke="white" stroke-opacity="0.36" stroke-width="1.70355"/>
<path opacity="0.482759" d="M543.784 863.325C550.065 861.642 555.527 857.236 560.154 850.253C564.786 843.264 568.549 833.738 571.428 821.925C577.186 798.299 579.366 765.703 578.019 726.431C575.327 647.901 558.542 542.87 528.288 429.963C498.035 317.056 460.056 217.704 423.123 148.348C404.653 113.664 386.466 86.5254 369.667 68.9443C361.268 60.1534 353.245 53.7852 345.74 50.0482C338.241 46.3144 331.308 45.2296 325.027 46.9126C318.746 48.5956 313.284 53.0016 308.657 59.9846C304.026 66.9735 300.263 76.4996 297.384 88.3126C291.626 111.938 289.446 144.534 290.792 183.806C293.485 262.336 310.27 367.368 340.523 480.274C370.776 593.181 408.756 692.534 445.689 761.889C464.159 796.573 482.345 823.712 499.144 841.293C507.544 850.084 515.566 856.452 523.071 860.189C530.57 863.923 537.503 865.008 543.784 863.325Z" stroke="white" stroke-opacity="0.36" stroke-width="1.70355"/>
<path opacity="0.517241" d="M578.945 855.62C585.056 853.396 590.113 848.53 594.114 841.171C598.118 833.805 601.037 823.987 602.876 811.968C606.552 787.931 605.883 755.269 601.119 716.263C591.593 638.267 565.717 535.098 525.738 425.258C485.76 315.417 439.266 219.753 396.429 153.881C375.006 120.938 354.524 95.4877 336.256 79.4376C327.122 71.4123 318.576 65.7675 310.773 62.6988C302.978 59.6328 295.976 59.1564 289.866 61.3804C283.755 63.6045 278.698 68.4697 274.697 75.8294C270.693 83.1954 267.774 93.0132 265.936 105.032C262.259 129.069 262.928 161.732 267.692 200.737C277.219 278.733 303.094 381.902 343.073 491.742C383.052 601.583 429.545 697.247 472.383 763.12C493.805 796.062 514.288 821.513 532.555 837.563C541.689 845.588 550.236 851.233 558.038 854.301C565.834 857.367 572.835 857.844 578.945 855.62Z" stroke="white" stroke-opacity="0.36" stroke-width="1.70355"/>
<path opacity="0.551724" d="M613.006 844.891C618.899 842.143 623.513 836.856 626.857 829.175C630.205 821.488 632.256 811.453 633.04 799.32C634.608 775.054 631.095 742.574 622.95 704.133C606.661 627.263 571.893 526.742 522.493 420.804C473.093 314.866 418.439 223.618 370.023 161.73C345.811 130.78 323.188 107.211 303.592 92.8145C293.793 85.6158 284.787 80.7373 276.747 78.3604C268.713 75.9854 261.697 76.1211 255.804 78.8692C249.91 81.6174 245.297 86.9049 241.952 94.5852C238.605 102.272 236.553 112.307 235.769 124.441C234.201 148.707 237.715 181.186 245.86 219.628C262.148 296.497 296.917 397.018 346.317 502.956C395.717 608.894 450.371 700.143 498.787 762.031C522.999 792.98 545.621 816.549 565.218 830.946C575.017 838.145 584.023 843.023 592.063 845.4C600.096 847.775 607.112 847.639 613.006 844.891Z" stroke="white" stroke-opacity="0.36" stroke-width="1.70355"/>
<path opacity="0.586207" d="M645.708 831.249C651.339 827.998 655.475 822.328 658.137 814.385C660.801 806.436 661.971 796.261 661.694 784.105C661.141 759.794 654.811 727.745 643.346 690.159C620.42 615.002 577.022 517.894 518.578 416.664C460.133 315.435 397.733 229.297 344.108 171.864C317.291 143.143 292.7 121.635 271.923 109.001C261.534 102.684 252.137 98.609 243.921 96.9418C235.711 95.2761 228.733 96.0227 223.102 99.274C217.47 102.525 213.335 108.195 210.673 116.137C208.008 124.087 206.839 134.262 207.115 146.418C207.668 170.729 213.999 202.778 225.464 240.364C248.39 315.521 291.787 412.629 350.232 513.859C408.677 615.088 471.076 701.226 524.702 758.658C551.519 787.38 576.11 808.888 596.887 821.522C607.275 827.839 616.672 831.914 624.889 833.581C633.099 835.247 640.076 834.5 645.708 831.249Z" stroke="white" stroke-opacity="0.36" stroke-width="1.70355"/>
<path opacity="0.62069" d="M676.802 814.82C682.129 811.09 685.754 805.082 687.714 796.938C689.675 788.786 689.954 778.547 688.619 766.462C685.949 742.292 676.849 710.916 662.152 674.473C632.763 601.6 581.067 508.644 514.022 412.893C446.977 317.143 377.308 236.772 318.881 184.231C289.662 157.956 263.291 138.674 241.492 127.898C230.592 122.511 220.875 119.27 212.545 118.325C204.221 117.381 197.335 118.733 192.008 122.463C186.682 126.193 183.056 132.201 181.096 140.346C179.135 148.497 178.857 158.736 180.191 170.821C182.861 194.991 191.961 226.367 206.658 262.81C236.047 335.683 287.743 428.64 354.788 524.39C421.833 620.14 491.503 700.512 549.929 753.052C579.148 779.327 605.52 798.61 627.319 809.385C638.219 814.773 647.935 818.013 656.266 818.958C664.589 819.902 671.475 818.55 676.802 814.82Z" stroke="white" stroke-opacity="0.36" stroke-width="1.70355"/>
<path opacity="0.655172" d="M706.05 795.759C711.032 791.579 714.12 785.277 715.362 776.993C716.606 768.702 715.991 758.478 713.608 746.555C708.842 722.71 697.042 692.246 679.224 657.223C643.596 587.188 583.995 499.091 508.86 409.548C433.724 320.006 357.315 246.012 294.532 198.764C263.134 175.135 235.183 158.225 212.527 149.391C201.199 144.973 191.237 142.592 182.856 142.377C174.482 142.162 167.74 144.109 162.759 148.289C157.777 152.469 154.689 158.77 153.447 167.054C152.203 175.346 152.818 185.57 155.201 197.493C159.967 221.338 171.767 251.801 189.585 286.825C225.213 356.859 284.814 444.956 359.949 534.499C435.085 624.042 511.494 698.035 574.277 745.283C605.675 768.912 633.627 785.823 656.282 794.657C667.61 799.074 677.572 801.455 685.953 801.67C694.327 801.885 701.069 799.938 706.05 795.759Z" stroke="white" stroke-opacity="0.36" stroke-width="1.70355"/>
<path opacity="0.689655" d="M733.232 774.232C737.83 769.634 740.357 763.087 740.873 754.726C741.389 746.358 739.885 736.226 736.472 724.556C729.646 701.217 715.236 671.898 694.434 638.561C652.837 571.898 585.785 489.331 503.131 406.677C420.478 324.024 337.91 256.972 271.248 215.375C237.91 194.573 208.591 180.163 185.252 173.336C173.582 169.923 163.451 168.419 155.083 168.936C146.722 169.451 140.175 171.978 135.577 176.577C130.979 181.175 128.452 187.721 127.936 196.082C127.42 204.45 128.924 214.582 132.337 226.252C139.163 249.591 153.573 278.91 174.375 312.247C215.972 378.91 283.024 461.477 365.678 544.131C448.331 626.784 530.898 693.837 597.561 735.433C630.898 756.235 660.218 770.646 683.557 777.472C695.227 780.885 705.358 782.389 713.726 781.873C722.087 781.357 728.634 778.83 733.232 774.232Z" stroke="white" stroke-opacity="0.36" stroke-width="1.70355"/>
<path opacity="0.724138" d="M758.139 750.431C762.319 745.449 764.266 738.707 764.051 730.333C763.836 721.952 761.455 711.99 757.038 700.662C748.203 678.007 731.293 650.055 707.664 618.658C660.416 555.874 586.422 479.465 496.88 404.33C407.337 329.194 319.24 269.594 249.205 233.965C214.182 216.148 183.718 204.348 159.873 199.582C147.95 197.199 137.726 196.583 129.435 197.827C121.151 199.07 114.849 202.158 110.669 207.139C106.49 212.12 104.543 218.862 104.758 227.237C104.973 235.618 107.354 245.58 111.771 256.908C120.605 279.563 137.516 307.515 161.145 338.912C208.393 401.696 282.386 478.105 371.929 553.24C461.472 628.375 549.569 687.976 619.603 723.605C654.627 741.422 685.09 753.222 708.935 757.988C720.858 760.371 731.082 760.986 739.374 759.743C747.658 758.5 753.959 755.412 758.139 750.431Z" stroke="white" stroke-opacity="0.36" stroke-width="1.70355"/>
<path opacity="0.758621" d="M780.584 724.563C784.313 719.236 785.665 712.351 784.721 704.027C783.777 695.696 780.536 685.98 775.148 675.08C764.373 653.281 745.091 626.909 718.816 597.691C666.275 539.264 585.904 469.595 490.154 402.549C394.403 335.504 301.447 283.808 228.574 254.419C192.13 239.722 160.754 230.622 136.585 227.953C124.499 226.618 114.261 226.896 106.109 228.858C97.9648 230.817 91.9564 234.443 88.2267 239.77C84.4969 245.096 83.1449 251.982 84.0889 260.306C85.0336 268.637 88.274 278.353 93.6618 289.253C104.437 311.052 123.719 337.423 149.994 366.642C202.535 425.069 282.906 494.738 378.657 561.783C474.407 628.828 567.364 680.524 640.237 709.913C676.68 724.61 708.056 733.71 732.226 736.38C744.311 737.715 754.55 737.437 762.701 735.475C770.846 733.515 776.854 729.89 780.584 724.563Z" stroke="white" stroke-opacity="0.36" stroke-width="1.70355"/>
<path opacity="0.793103" d="M800.392 696.85C803.643 691.219 804.39 684.241 802.724 676.031C801.057 667.815 796.982 658.418 790.665 648.029C778.031 627.252 756.523 602.661 727.801 575.844C670.368 522.219 584.231 459.819 483.002 401.374C381.772 342.929 284.664 299.532 209.507 276.606C171.921 265.141 139.871 258.811 115.561 258.258C103.405 257.981 93.2298 259.151 85.2804 261.815C77.3378 264.477 71.6683 268.613 68.417 274.244C65.1656 279.876 64.419 286.853 66.0848 295.063C67.7519 303.279 71.8269 312.676 78.1442 323.065C90.7783 343.842 112.286 368.433 141.007 395.25C198.44 448.876 284.578 511.275 385.807 569.72C487.037 628.165 584.145 671.562 659.302 694.488C696.888 705.953 728.937 712.284 753.248 712.837C765.403 713.113 775.579 711.944 783.528 709.279C791.471 706.617 797.141 702.482 800.392 696.85Z" stroke="white" stroke-opacity="0.36" stroke-width="1.70355"/>
<path opacity="0.827586" d="M817.416 667.529C820.164 661.636 820.299 654.62 817.924 646.586C815.548 638.546 810.669 629.54 803.47 619.742C789.074 600.145 765.505 577.522 734.555 553.31C672.667 504.895 581.419 450.24 475.481 400.84C369.543 351.441 269.022 316.672 192.152 300.384C153.711 292.238 121.231 288.725 96.9649 290.293C84.8314 291.077 74.7965 293.129 67.1096 296.476C59.4292 299.82 54.1417 304.434 51.3936 310.327C48.6454 316.221 48.5098 323.237 50.8847 331.27C53.2617 339.31 58.1401 348.316 65.3388 358.115C79.7357 377.712 103.305 400.334 134.254 424.546C196.142 472.962 287.39 527.617 393.329 577.016C499.267 626.416 599.788 661.185 676.657 677.473C715.099 685.618 747.578 689.132 771.844 687.564C783.978 686.78 794.013 684.728 801.7 681.381C809.38 678.036 814.668 673.423 817.416 667.529Z" stroke="white" stroke-opacity="0.36" stroke-width="1.70355"/>
<path opacity="0.862069" d="M831.524 636.849C833.748 630.738 833.271 623.737 830.205 615.941C827.137 608.139 821.492 599.592 813.466 590.458C797.416 572.191 771.966 551.709 739.024 530.286C673.151 487.448 577.487 440.955 467.646 400.976C357.806 360.997 254.637 335.122 176.641 325.595C137.635 320.831 104.973 320.162 80.9361 323.839C68.9171 325.677 59.0993 328.596 51.7333 332.601C44.3736 336.602 39.5084 341.659 37.2843 347.769C35.0603 353.88 35.5367 360.881 38.6027 368.677C41.6714 376.479 47.3162 385.026 55.3415 394.16C71.3916 412.427 96.8424 432.909 129.784 454.332C195.657 497.169 291.321 543.663 401.162 583.642C511.002 623.62 614.171 649.496 692.167 659.022C731.173 663.787 763.835 664.456 787.872 660.779C799.891 658.94 809.709 656.022 817.075 652.017C824.434 648.016 829.3 642.959 831.524 636.849Z" stroke="white" stroke-opacity="0.36" stroke-width="1.70355"/>
<path opacity="0.896552" d="M842.611 605.068C844.294 598.787 843.209 591.854 839.475 584.355C835.738 576.85 829.37 568.828 820.579 560.428C802.998 543.629 775.859 525.443 741.175 506.973C671.82 470.039 572.467 432.06 459.561 401.807C346.654 371.554 241.622 354.768 163.092 352.076C123.82 350.73 91.2242 352.91 67.599 358.667C55.7859 361.547 46.2598 365.31 39.2709 369.941C32.2879 374.568 27.882 380.03 26.1989 386.311C24.5159 392.592 25.6007 399.525 29.3345 407.024C33.0715 414.529 39.4397 422.551 48.2306 430.951C65.8117 447.75 92.9508 465.936 127.635 484.406C196.99 521.34 296.342 559.319 409.249 589.572C522.156 619.825 627.187 636.611 705.717 639.303C744.989 640.65 777.586 638.47 801.211 632.712C813.024 629.833 822.55 626.069 829.539 621.438C836.522 616.811 840.928 611.349 842.611 605.068Z" stroke="white" stroke-opacity="0.36" stroke-width="1.70355"/>
<path opacity="0.931035" d="M850.59 572.456C851.719 566.052 850.034 559.239 845.661 552.095C841.284 544.944 834.241 537.507 824.752 529.905C805.773 514.703 777.152 498.951 740.991 483.574C668.681 452.826 566.396 423.651 451.282 403.353C336.168 383.055 230.074 375.488 151.608 379.65C112.368 381.732 80.0855 386.744 57.052 394.539C45.5348 398.437 36.373 403.016 29.8143 408.239C23.2612 413.457 19.348 419.282 18.2189 425.686C17.0897 432.09 18.7746 438.902 23.1477 446.047C27.5246 453.198 34.5678 460.634 44.0573 468.236C63.0356 483.439 91.6565 499.19 127.818 514.567C200.128 545.315 302.413 574.491 417.527 594.788C532.641 615.086 638.735 622.654 717.201 618.491C756.441 616.41 788.723 611.397 811.757 603.602C823.274 599.705 832.436 595.125 838.995 589.903C845.548 584.684 849.461 578.859 850.59 572.456Z" stroke="white" stroke-opacity="0.36" stroke-width="1.70355"/>
<path opacity="0.965517" d="M855.403 539.283C855.97 532.805 853.698 526.166 848.718 519.429C843.735 512.687 836.07 505.893 825.954 499.147C805.723 485.656 775.838 472.459 738.474 460.292C663.759 435.964 559.321 415.814 442.876 405.626C326.431 395.439 220.081 397.147 142.276 408.132C103.367 413.625 71.6447 421.433 49.3783 431.205C38.2446 436.092 29.5167 441.452 23.4382 447.227C17.3648 452.996 13.9742 459.14 13.4075 465.618C12.8407 472.096 15.1129 478.735 20.0922 485.472C25.0757 492.214 32.7401 499.009 42.8561 505.754C63.0872 519.245 92.972 532.442 130.336 544.609C205.051 568.938 309.489 589.088 425.934 599.275C542.379 609.463 648.73 607.755 726.534 596.77C765.443 591.276 797.166 583.469 819.432 573.696C830.566 568.809 839.294 563.449 845.372 557.675C851.446 551.905 854.836 545.761 855.403 539.283Z" stroke="white" stroke-opacity="0.36" stroke-width="1.70355"/>
<path d="M857.011 505.832C857.011 499.33 854.169 492.913 848.621 486.637C843.069 480.354 834.842 474.254 824.176 468.415C802.846 456.739 771.925 446.197 733.643 437.333C657.092 419.609 551.295 408.638 434.405 408.638C317.515 408.638 211.718 419.609 135.167 437.333C96.8849 446.197 65.9636 456.739 44.6337 468.415C33.9683 474.254 25.7408 480.354 20.1887 486.637C14.6412 492.913 11.799 499.33 11.799 505.832C11.799 512.335 14.6412 518.751 20.1887 525.028C25.7408 531.31 33.9683 537.411 44.6337 543.249C65.9636 554.925 96.8849 565.468 135.167 574.331C211.718 592.056 317.515 603.027 434.405 603.027C551.295 603.027 657.092 592.056 733.643 574.331C771.925 565.468 802.846 554.925 824.176 543.249C834.842 537.411 843.069 531.31 848.621 525.028C854.169 518.751 857.011 512.335 857.011 505.832Z" stroke="white" stroke-opacity="0.36" stroke-width="1.70355"/>
</g>
</svg>
