<svg width="475" height="700" viewBox="0 0 475 700" fill="none" xmlns="http://www.w3.org/2000/svg">
<path opacity="0.4248" d="M510.489 154.113C496.182 136.66 476.105 120.965 452.903 118.708C434.909 116.954 417.93 124.207 403.345 134.159C386.89 145.386 372.781 159.677 358.393 173.349C349.572 181.734 340.5 189.536 330.013 195.786C318.734 202.509 306.447 207.591 293.709 210.785C280.549 214.102 266.982 215.381 253.45 214.62C238.026 213.759 222.857 210.653 207.609 208.302C182.562 204.433 154.967 202.893 132.264 216.281C122.243 222.192 114.213 230.986 109.728 241.762C105.126 252.837 104.362 265.223 106.204 276.986C110.394 303.731 127.698 324.935 147.739 342.05C169.222 360.397 193.841 374.827 214.172 394.553C224.347 404.427 233.374 415.667 239.436 428.548C245.447 441.311 248.509 455.184 250.611 469.077C254.556 495.256 255.338 522.419 266.252 546.984C271.274 558.308 278.508 568.714 288.293 576.434C298.127 584.173 310.028 588.882 322.31 590.955C380.077 600.667 425.03 556.349 463.951 520.759C485.729 500.854 508.553 482.107 536.309 471.215C563.085 460.707 591.921 456.008 617.943 443.505C641.03 432.421 662.05 414.85 668.884 389.212C675.375 364.858 669.028 338.514 657.013 316.906C643.169 292.009 621.704 272.152 600.674 253.391C589.37 243.304 577.766 233.486 567.225 222.585C556.835 211.826 547.308 200.278 538.048 188.546C533.617 182.945 529.244 177.298 524.851 171.67C520.18 165.698 515.124 160.071 510.325 154.213C510.002 153.81 509.366 154.303 509.689 154.706C514.481 160.547 518.808 166.796 523.471 172.752C527.865 178.379 532.254 184.019 536.669 189.628C545.721 201.084 555.017 212.376 565.135 222.917C585.202 243.834 608.61 261.22 628.529 282.3C647.117 301.971 662.906 324.741 668.058 351.77C670.417 364.179 670.461 377.174 667.046 389.395C663.489 402.151 656.184 413.398 646.556 422.429C626.439 441.309 599.533 449.806 573.634 457.365C559.884 461.372 546.072 465.258 532.815 470.701C520.008 475.951 508.039 482.883 496.826 490.97C473.935 507.483 454.379 527.977 433.062 546.369C412.231 564.332 388.761 581.264 361.545 587.653C336.399 593.551 307.491 590.623 287.291 573.321C267.409 556.296 260.466 529.33 256.905 504.447C253.129 478.086 252.259 450.447 240.21 426.137C228.311 402.147 207.102 384.64 185.993 369.005C163.672 352.464 139.757 336.671 123.379 313.751C108.91 293.503 101.357 265.358 111.626 241.602C122.028 217.541 148.502 208.183 172.973 207.232C202.304 206.093 230.722 216.22 259.996 216.479C284.472 216.702 308.9 210.038 329.999 197.67C348.748 186.676 363.257 170.501 379.123 155.953C392.841 143.382 407.712 130.826 425.336 124.172C443.574 117.293 462.587 119.506 479.448 129.073C491.051 135.65 500.999 144.634 509.506 154.855C510.037 155.465 510.996 154.713 510.489 154.113Z" fill="url(#paint0_linear_384_104)"/>
<path opacity="0.4248" d="M459.294 270.413C451.912 261.408 441.553 253.31 429.582 252.146C420.297 251.241 411.537 254.983 404.011 260.118C395.521 265.91 388.242 273.284 380.818 280.338C376.267 284.665 371.586 288.69 366.175 291.915C360.355 295.384 354.016 298.006 347.443 299.654C340.653 301.365 333.653 302.026 326.671 301.633C318.713 301.188 310.886 299.586 303.019 298.373C290.096 296.377 275.857 295.582 264.144 302.49C258.973 305.539 254.83 310.077 252.516 315.637C250.141 321.351 249.747 327.742 250.698 333.811C252.859 347.611 261.788 358.551 272.128 367.382C283.212 376.849 295.915 384.294 306.405 394.472C311.655 399.566 316.313 405.366 319.44 412.012C322.542 418.597 324.122 425.755 325.207 432.923C327.242 446.431 327.646 460.446 333.277 473.12C335.868 478.963 339.6 484.332 344.649 488.316C349.723 492.309 355.864 494.738 362.201 495.808C392.006 500.819 415.2 477.952 435.282 459.589C446.519 449.319 458.295 439.646 472.616 434.026C486.431 428.605 501.31 426.18 514.736 419.729C526.648 414.01 537.494 404.944 541.02 391.716C544.369 379.15 541.094 365.557 534.895 354.409C527.752 341.563 516.677 331.317 505.826 321.637C499.993 316.433 494.006 311.367 488.568 305.742C483.207 300.191 478.291 294.233 473.513 288.18C471.227 285.289 468.971 282.376 466.704 279.472C464.294 276.391 461.686 273.487 459.209 270.465C459.043 270.257 458.714 270.511 458.881 270.72C461.354 273.733 463.586 276.958 465.992 280.03C468.259 282.934 470.524 285.844 472.802 288.738C477.472 294.649 482.269 300.475 487.489 305.914C497.843 316.706 509.921 325.677 520.198 336.553C529.789 346.703 537.935 358.451 540.594 372.397C541.811 378.8 541.834 385.505 540.072 391.81C538.236 398.392 534.467 404.195 529.499 408.855C519.12 418.596 505.238 422.98 491.875 426.88C484.78 428.948 477.653 430.953 470.814 433.761C464.206 436.47 458.03 440.047 452.244 444.219C440.433 452.739 430.343 463.314 419.344 472.803C408.597 482.071 396.487 490.808 382.444 494.104C369.47 497.147 354.555 495.636 344.132 486.709C333.873 477.925 330.291 464.012 328.454 451.173C326.506 437.572 326.057 423.311 319.84 410.768C313.7 398.39 302.757 389.357 291.866 381.29C280.349 372.755 268.01 364.607 259.559 352.781C252.094 342.334 248.197 327.812 253.495 315.555C258.862 303.14 272.522 298.311 285.148 297.821C300.282 297.233 314.944 302.458 330.049 302.592C342.677 302.707 355.281 299.268 366.168 292.887C375.841 287.215 383.328 278.869 391.514 271.363C398.592 264.876 406.265 258.398 415.358 254.965C424.768 251.416 434.578 252.557 443.278 257.494C449.265 260.887 454.397 265.523 458.787 270.796C459.061 271.111 459.556 270.723 459.294 270.413Z" fill="url(#paint1_linear_384_104)"/>
<path opacity="0.4248" d="M473.141 212.419C462.802 199.807 448.293 188.465 431.527 186.834C418.523 185.567 406.253 190.808 395.714 198C383.823 206.112 373.627 216.44 363.23 226.32C356.855 232.379 350.299 238.018 342.721 242.534C334.57 247.392 325.691 251.065 316.486 253.373C306.976 255.77 297.172 256.695 287.393 256.144C276.247 255.522 265.285 253.277 254.266 251.579C236.167 248.783 216.225 247.67 199.819 257.345C192.578 261.616 186.774 267.971 183.533 275.758C180.208 283.761 179.656 292.712 180.987 301.212C184.014 320.54 196.52 335.863 211.001 348.231C226.526 361.489 244.317 371.917 259.009 386.172C266.362 393.307 272.886 401.43 277.266 410.738C281.61 419.961 283.823 429.986 285.342 440.026C288.192 458.944 288.758 478.573 296.644 496.325C300.274 504.508 305.501 512.028 312.573 517.607C319.679 523.199 328.279 526.602 337.155 528.101C378.899 535.119 411.385 503.092 439.511 477.374C455.248 462.989 471.741 449.442 491.799 441.571C511.149 433.978 531.987 430.582 550.791 421.547C567.475 413.537 582.665 400.839 587.604 382.312C592.295 364.713 587.708 345.675 579.025 330.061C569.021 312.069 553.51 297.719 538.313 284.162C530.143 276.873 521.758 269.778 514.141 261.9C506.632 254.125 499.748 245.78 493.056 237.302C489.854 233.254 486.694 229.174 483.519 225.107C480.144 220.791 476.49 216.725 473.022 212.492C472.789 212.2 472.329 212.556 472.562 212.848C476.025 217.069 479.152 221.585 482.522 225.889C485.697 229.955 488.869 234.031 492.059 238.084C498.601 246.363 505.319 254.523 512.631 262.14C527.131 277.256 544.047 289.819 558.442 305.053C571.874 319.268 583.284 335.722 587.007 355.255C588.712 364.222 588.743 373.613 586.276 382.444C583.705 391.663 578.426 399.79 571.469 406.316C556.931 419.959 537.488 426.1 518.772 431.562C508.836 434.458 498.854 437.266 489.275 441.2C480.02 444.993 471.37 450.003 463.267 455.846C446.725 467.78 432.593 482.59 417.188 495.88C402.135 508.861 385.175 521.097 365.507 525.714C347.336 529.976 326.446 527.86 311.848 515.357C297.48 503.054 292.463 483.567 289.89 465.586C287.161 446.536 286.532 426.563 277.826 408.996C269.226 391.66 253.9 379.008 238.646 367.71C222.515 355.756 205.234 344.344 193.398 327.781C182.942 313.149 177.484 292.81 184.905 275.643C192.422 258.255 211.553 251.493 229.237 250.805C250.433 249.982 270.969 257.3 292.124 257.488C309.811 257.649 327.464 252.833 342.711 243.896C356.26 235.951 366.745 224.262 378.21 213.749C388.123 204.665 398.869 195.591 411.606 190.783C424.785 185.812 438.524 187.411 450.709 194.325C459.094 199.077 466.283 205.57 472.43 212.955C472.814 213.396 473.507 212.853 473.141 212.419Z" fill="url(#paint2_linear_384_104)"/>
<defs>
<linearGradient id="paint0_linear_384_104" x1="108.765" y1="244.191" x2="643.106" y2="455.609" gradientUnits="userSpaceOnUse">
<stop stop-color="white"/>
<stop offset="0.6103"/>
<stop offset="1" stop-color="white"/>
</linearGradient>
<linearGradient id="paint1_linear_384_104" x1="252.019" y1="316.89" x2="527.72" y2="425.975" gradientUnits="userSpaceOnUse">
<stop stop-color="white"/>
<stop offset="0.6103"/>
<stop offset="1" stop-color="white"/>
</linearGradient>
<linearGradient id="paint2_linear_384_104" x1="182.838" y1="277.514" x2="568.976" y2="430.294" gradientUnits="userSpaceOnUse">
<stop stop-color="white"/>
<stop offset="0.6103"/>
<stop offset="1" stop-color="white"/>
</linearGradient>
</defs>
</svg>
