<svg width="779" height="1584" viewBox="0 0 779 1584" fill="none" xmlns="http://www.w3.org/2000/svg">
<g opacity="0.5">
<path opacity="0.0344828" d="M455.664 1075.63C459.796 1067.53 460.322 1057.77 457.427 1046.51C454.53 1035.24 448.221 1022.54 438.758 1008.64C419.835 980.853 388.403 948.449 346.881 913.503C263.849 843.618 140.613 763.682 -3.1449 690.277C-146.903 616.872 -283.917 563.92 -389.215 537.641C-441.871 524.5 -486.55 518.04 -520.157 519.006C-536.961 519.49 -550.953 521.829 -561.776 526.088C-572.593 530.344 -580.196 536.497 -584.328 544.59C-588.461 552.683 -588.986 562.45 -586.091 573.708C-583.195 584.972 -576.885 597.678 -567.423 611.573C-548.499 639.363 -517.067 671.766 -475.546 706.713C-392.513 776.598 -269.278 856.534 -125.52 929.939C18.2382 1003.34 155.252 1056.3 260.551 1082.57C313.206 1095.72 357.885 1102.18 391.493 1101.21C408.297 1100.73 422.288 1098.39 433.112 1094.13C443.928 1089.87 451.531 1083.72 455.664 1075.63Z" stroke="#7A7A7A" stroke-opacity="0.44" stroke-width="1.65807"/>
<path opacity="0.0689655" d="M481.124 1027.47C484.535 1019.05 484.208 1009.28 480.343 998.314C476.476 987.345 469.083 975.238 458.445 962.22C437.171 936.186 403.035 906.645 358.626 875.45C269.818 813.068 140.085 744.177 -9.52387 683.58C-159.132 622.984 -300.24 582.176 -407.428 565.173C-461.029 556.671 -506.101 554.13 -539.496 558.022C-556.194 559.968 -569.929 563.518 -580.339 568.704C-590.744 573.887 -597.782 580.679 -601.193 589.101C-604.604 597.524 -604.277 607.299 -600.412 618.262C-596.545 629.231 -589.151 641.338 -578.514 654.356C-557.24 680.39 -523.104 709.931 -478.695 741.126C-389.887 803.508 -260.154 872.399 -110.545 932.996C39.0634 993.592 180.171 1034.4 287.359 1051.4C340.96 1059.9 386.032 1062.45 419.427 1058.55C436.125 1056.61 449.86 1053.06 460.27 1047.87C470.675 1042.69 477.713 1035.9 481.124 1027.47Z" stroke="#7A7A7A" stroke-opacity="0.44" stroke-width="1.65807"/>
<path opacity="0.103448" d="M502.467 977.655C505.132 968.967 503.953 959.258 499.148 948.674C494.339 938.083 485.919 926.666 474.188 914.625C450.726 890.544 414.144 864.091 367.185 836.885C273.279 782.48 138.035 725.158 -16.2858 677.832C-170.606 630.506 -314.734 602.151 -422.996 594.555C-477.133 590.757 -522.256 592.154 -555.184 598.942C-571.649 602.336 -585.022 607.069 -594.941 613.143C-604.854 619.213 -611.273 626.593 -613.938 635.28C-616.602 643.968 -615.424 653.677 -610.618 664.261C-605.81 674.852 -597.389 686.269 -585.658 698.31C-562.196 722.391 -525.615 748.844 -478.656 776.05C-384.749 830.455 -249.505 887.777 -95.1846 935.103C59.1359 982.429 203.264 1010.78 311.525 1018.38C365.663 1022.18 410.785 1020.78 443.714 1013.99C460.179 1010.6 473.552 1005.87 483.471 999.792C493.384 993.722 499.803 986.343 502.467 977.655Z" stroke="#7A7A7A" stroke-opacity="0.44" stroke-width="1.65807"/>
<path opacity="0.137931" d="M519.562 926.533C521.459 917.646 519.439 908.076 513.729 897.951C508.016 887.82 498.632 877.181 485.896 866.208C460.425 844.263 421.677 821.099 372.526 798.089C274.235 752.076 134.509 706.76 -23.3487 673.063C-181.207 639.367 -327.257 623.681 -435.769 625.551C-490.032 626.485 -534.86 631.809 -567.072 641.441C-583.179 646.257 -596.088 652.138 -605.44 659.053C-614.787 665.964 -620.538 673.875 -622.435 682.762C-624.332 691.649 -622.312 701.219 -616.602 711.344C-610.889 721.475 -601.506 732.114 -588.77 743.087C-563.298 765.032 -524.55 788.196 -475.399 811.206C-377.108 857.219 -237.383 902.535 -79.5246 936.232C78.3334 969.928 224.384 985.613 332.896 983.744C387.158 982.81 431.987 977.486 464.199 967.854C480.305 963.038 493.215 957.157 502.567 950.242C511.913 943.331 517.665 935.42 519.562 926.533Z" stroke="#7A7A7A" stroke-opacity="0.44" stroke-width="1.65807"/>
<path opacity="0.172414" d="M532.31 874.483C533.425 865.465 530.579 856.107 524.008 846.519C517.434 836.924 507.159 827.143 493.515 817.322C466.228 797.681 425.609 777.982 374.639 759.343C272.712 722.072 129.568 689.106 -30.6258 669.296C-190.82 649.486 -337.682 646.589 -445.618 657.909C-499.592 663.569 -543.787 672.78 -575.036 685.183C-590.662 691.384 -603.01 698.368 -611.723 706.072C-620.432 713.771 -625.472 722.153 -626.587 731.172C-627.702 740.19 -624.856 749.547 -618.285 759.136C-611.711 768.731 -601.436 778.512 -587.792 788.333C-560.505 807.974 -519.886 827.673 -468.916 846.311C-366.989 883.583 -223.845 916.549 -63.6514 936.359C96.5428 956.169 243.405 959.065 351.34 947.746C405.315 942.085 449.509 932.875 480.759 920.472C496.385 914.271 508.732 907.287 517.446 899.583C526.155 891.884 531.195 883.501 532.31 874.483Z" stroke="#7A7A7A" stroke-opacity="0.44" stroke-width="1.65807"/>
<path opacity="0.206897" d="M540.65 821.888C540.975 812.807 537.323 803.733 529.942 794.753C522.556 785.768 511.468 776.92 497.02 768.325C468.125 751.137 425.944 735.053 373.543 720.928C268.756 692.682 123.284 672.317 -38.0273 666.544C-199.338 660.772 -345.894 670.686 -452.432 691.37C-505.708 701.713 -548.932 714.74 -578.982 729.819C-594.007 737.359 -605.699 745.392 -613.708 753.826C-621.713 762.255 -626.003 771.045 -626.328 780.126C-626.653 789.207 -623.002 798.281 -615.621 807.261C-608.235 816.246 -597.147 825.094 -582.699 833.689C-553.803 850.877 -511.622 866.961 -459.222 881.086C-354.434 909.332 -208.962 929.697 -47.6511 935.469C113.66 941.242 260.215 931.328 366.754 910.644C420.03 900.301 463.253 887.274 493.303 872.195C508.329 864.655 520.021 856.622 528.03 848.188C536.034 839.759 540.325 830.969 540.65 821.888Z" stroke="#7A7A7A" stroke-opacity="0.44" stroke-width="1.65807"/>
<path opacity="0.241379" d="M544.549 769.133C544.081 760.058 539.653 751.337 531.517 743.035C523.377 734.728 511.56 726.88 496.417 719.577C466.134 704.973 422.711 692.626 369.279 683.122C262.429 664.116 115.736 656.508 -45.4649 664.816C-206.665 673.125 -351.799 695.774 -456.129 725.665C-508.301 740.612 -550.225 757.357 -578.846 774.997C-593.157 783.818 -604.105 792.84 -611.348 801.94C-618.587 811.034 -622.095 820.164 -621.628 829.239C-621.16 838.314 -616.732 847.035 -608.596 855.337C-600.455 863.645 -588.638 871.493 -573.496 878.795C-543.213 893.4 -499.79 905.746 -446.358 915.251C-339.507 934.256 -192.814 941.865 -31.6137 933.557C129.587 925.248 274.72 902.598 379.051 872.708C431.223 857.761 473.146 841.016 501.767 823.375C516.078 814.555 527.026 805.533 534.27 796.433C541.509 787.338 545.017 778.208 544.549 769.133Z" stroke="#7A7A7A" stroke-opacity="0.44" stroke-width="1.65807"/>
<path opacity="0.275862" d="M544.007 716.609C542.75 707.609 537.578 699.307 528.75 691.746C519.916 684.18 507.46 677.391 491.739 671.436C460.298 659.527 415.965 651.012 361.908 646.201C253.807 636.58 107.009 641.785 -52.8539 664.112C-212.717 686.438 -355.324 721.651 -456.653 760.52C-507.323 779.958 -547.627 800.293 -574.602 820.361C-588.09 830.395 -598.21 840.337 -604.633 850.033C-611.052 859.724 -613.751 869.125 -612.494 878.125C-611.237 887.125 -606.066 895.427 -597.237 902.988C-588.403 910.554 -575.947 917.343 -560.226 923.298C-528.785 935.207 -484.452 943.722 -430.395 948.533C-322.294 958.154 -175.496 952.949 -15.6332 930.622C144.23 908.296 286.837 873.083 388.165 834.214C438.836 814.776 479.14 794.441 506.115 774.373C519.603 764.339 529.723 754.397 536.146 744.7C542.565 735.01 545.264 725.608 544.007 716.609Z" stroke="#7A7A7A" stroke-opacity="0.44" stroke-width="1.65807"/>
<path opacity="0.310345" d="M539.066 664.698C537.03 655.842 531.155 648.023 521.701 641.259C512.241 634.492 499.241 628.815 483.061 624.253C450.701 615.129 405.794 610.51 351.524 610.429C242.996 610.266 97.2103 628.246 -60.0984 664.42C-217.407 700.595 -356.403 748.103 -453.958 795.656C-502.741 819.435 -541.12 843.206 -566.243 865.549C-578.805 876.72 -588.02 887.506 -593.573 897.726C-599.123 907.939 -600.993 917.54 -598.956 926.395C-596.92 935.251 -591.044 943.071 -581.591 949.834C-572.131 956.601 -559.131 962.278 -542.95 966.841C-510.591 975.965 -465.684 980.583 -411.414 980.665C-302.886 980.827 -157.1 962.847 0.208651 926.673C157.517 890.499 296.513 842.991 394.068 795.438C442.852 771.658 481.23 747.888 506.354 725.545C518.916 714.373 528.13 703.588 533.684 693.368C539.234 683.155 541.103 673.554 539.066 664.698Z" stroke="#7A7A7A" stroke-opacity="0.44" stroke-width="1.65807"/>
<path opacity="0.344828" d="M529.795 613.783C526.995 605.138 520.46 597.86 510.453 591.947C500.44 586.03 486.994 581.507 470.478 578.373C437.446 572.104 392.308 571.417 338.236 576.065C230.108 585.362 86.4436 615.98 -67.1137 665.727C-220.671 715.474 -354.997 774.915 -448.036 830.79C-494.562 858.731 -530.723 885.756 -553.803 910.203C-565.344 922.427 -573.583 933.975 -578.225 944.64C-582.863 955.298 -583.889 965.025 -581.088 973.669C-578.288 982.314 -571.753 989.592 -561.746 995.506C-551.733 1001.42 -538.287 1005.95 -521.771 1009.08C-488.739 1015.35 -443.601 1016.04 -389.529 1011.39C-281.401 1002.09 -137.737 971.472 15.8207 921.725C169.378 871.978 303.704 812.537 396.743 756.662C443.269 728.722 479.43 701.696 502.51 677.249C514.051 665.025 522.29 653.477 526.932 642.813C531.57 632.154 532.596 622.427 529.795 613.783Z" stroke="#7A7A7A" stroke-opacity="0.44" stroke-width="1.65807"/>
<path opacity="0.37931" d="M516.298 564.237C512.755 555.869 505.611 549.188 495.126 544.17C484.635 539.148 470.847 535.814 454.12 534.131C420.668 530.765 375.641 534.015 322.181 543.358C215.274 562.044 74.8251 605.066 -73.8121 668.007C-222.449 730.948 -351.084 801.871 -438.899 865.642C-482.812 897.531 -516.48 927.605 -537.342 953.971C-547.773 967.154 -554.975 979.376 -558.669 990.405C-562.361 1001.43 -562.535 1011.21 -558.992 1019.57C-555.449 1027.94 -548.305 1034.62 -537.82 1039.64C-527.329 1044.66 -513.54 1048 -496.814 1049.68C-463.362 1053.05 -418.335 1049.8 -364.875 1040.45C-257.968 1021.77 -117.519 978.745 31.1184 915.803C179.756 852.862 308.39 781.94 396.205 718.169C440.119 686.279 473.787 656.206 494.648 629.84C505.08 616.656 512.281 604.434 515.976 593.406C519.668 582.384 519.842 572.604 516.298 564.237Z" stroke="#7A7A7A" stroke-opacity="0.44" stroke-width="1.65807"/>
<path opacity="0.413793" d="M498.711 516.423C494.452 508.396 486.753 502.364 475.871 498.278C464.982 494.19 450.955 492.071 434.145 491.852C400.527 491.414 355.955 498.575 303.513 512.543C198.641 540.475 62.4761 595.574 -80.1098 671.231C-222.696 746.887 -344.659 828.751 -426.583 899.932C-467.549 935.528 -498.468 968.422 -516.953 996.505C-526.195 1010.55 -532.304 1023.35 -535.023 1034.66C-537.741 1045.96 -537.061 1055.72 -532.802 1063.75C-528.543 1071.77 -520.844 1077.81 -509.962 1081.89C-499.073 1085.98 -485.047 1088.1 -468.237 1088.32C-434.619 1088.76 -390.047 1081.59 -337.604 1067.63C-232.732 1039.69 -96.5676 984.595 46.0183 908.938C188.604 833.282 310.568 751.419 392.491 680.237C433.458 644.641 464.376 611.747 482.861 583.664C492.104 569.621 498.213 556.818 500.932 545.51C503.649 534.208 502.97 524.451 498.711 516.423Z" stroke="#7A7A7A" stroke-opacity="0.44" stroke-width="1.65807"/>
<path opacity="0.448276" d="M477.196 470.693C472.253 463.068 464.058 457.729 452.861 454.607C441.657 451.484 427.499 450.595 410.734 451.842C377.206 454.336 333.428 465.355 282.402 483.84C180.364 520.806 49.5193 587.563 -85.9301 675.359C-221.379 763.154 -335.744 855.336 -411.152 933.387C-448.86 972.418 -476.794 1007.88 -492.761 1037.47C-500.744 1052.26 -505.715 1065.55 -507.438 1077.05C-509.16 1088.55 -507.633 1098.21 -502.69 1105.83C-497.748 1113.46 -489.552 1118.8 -478.355 1121.92C-467.152 1125.04 -452.993 1125.93 -436.229 1124.69C-402.7 1122.19 -358.922 1111.17 -307.896 1092.69C-205.858 1055.72 -75.0138 988.965 60.4356 901.169C195.885 813.374 310.25 721.192 385.657 643.141C423.366 604.11 451.3 568.647 467.266 539.059C475.25 524.264 480.22 510.978 481.943 499.475C483.665 487.979 482.138 478.318 477.196 470.693Z" stroke="#7A7A7A" stroke-opacity="0.44" stroke-width="1.65807"/>
<path opacity="0.482759" d="M451.95 427.381C446.362 420.215 437.732 415.611 426.306 413.477C414.872 411.342 400.691 411.691 384.098 414.394C350.915 419.8 308.264 434.593 259.043 457.455C160.615 503.174 36.0869 581.081 -91.1952 680.347C-218.477 779.614 -324.373 881.413 -392.691 965.739C-426.854 1007.91 -451.591 1045.67 -464.918 1076.54C-471.582 1091.97 -475.375 1105.64 -476.089 1117.25C-476.802 1128.85 -474.439 1138.34 -468.851 1145.51C-463.263 1152.67 -454.633 1157.28 -443.207 1159.41C-431.773 1161.55 -417.592 1161.2 -401 1158.5C-367.816 1153.09 -325.165 1138.3 -275.944 1115.43C-177.516 1069.72 -52.9879 991.809 74.2942 892.542C201.576 793.275 307.472 691.477 375.79 607.15C409.953 564.982 434.69 527.219 448.017 496.352C454.681 480.918 458.474 467.249 459.188 455.639C459.901 444.037 457.538 434.546 451.95 427.381Z" stroke="#7A7A7A" stroke-opacity="0.44" stroke-width="1.65807"/>
<path opacity="0.517241" d="M423.203 386.8C417.011 380.148 408.013 376.314 396.444 375.184C384.869 374.053 370.771 375.637 354.478 379.776C321.892 388.054 280.692 406.508 233.651 433.572C139.582 487.695 22.3181 576.159 -95.828 686.142C-213.974 796.124 -310.594 906.765 -371.303 996.724C-401.661 1041.71 -423.012 1081.49 -433.598 1113.4C-438.891 1129.35 -441.479 1143.3 -441.178 1154.93C-440.878 1166.55 -437.697 1175.8 -431.505 1182.45C-425.313 1189.1 -416.316 1192.93 -404.747 1194.06C-393.171 1195.19 -379.074 1193.61 -362.78 1189.47C-330.194 1181.19 -288.994 1162.74 -241.954 1135.67C-147.885 1081.55 -30.6204 993.088 87.5257 883.105C205.672 773.123 302.292 662.482 363 572.523C393.358 527.537 414.71 487.762 425.296 455.851C430.589 439.895 433.177 425.947 432.876 414.32C432.576 402.7 429.394 393.451 423.203 386.8Z" stroke="#7A7A7A" stroke-opacity="0.44" stroke-width="1.65807"/>
<path opacity="0.551724" d="M391.201 349.248C384.453 343.162 375.155 340.126 363.532 340.009C351.902 339.891 337.996 342.697 322.125 348.241C290.385 359.327 250.95 381.302 206.447 412.363C117.453 474.479 8.34562 572.827 -99.7653 692.687C-207.876 812.548 -294.485 931.189 -347.123 1026.1C-373.444 1073.56 -391.248 1115.04 -399.013 1147.75C-402.895 1164.11 -404.257 1178.23 -402.944 1189.79C-401.632 1201.34 -397.657 1210.27 -390.909 1216.36C-384.161 1222.45 -374.864 1225.48 -363.24 1225.6C-351.61 1225.72 -337.704 1222.91 -321.833 1217.37C-290.093 1206.28 -250.658 1184.31 -206.156 1153.25C-117.162 1091.13 -8.05374 992.782 100.057 872.921C208.168 753.061 294.777 634.42 347.414 539.511C373.736 492.051 391.54 450.566 399.304 417.854C403.187 401.497 404.549 387.377 403.236 375.82C401.924 364.271 397.949 355.334 391.201 349.248Z" stroke="#7A7A7A" stroke-opacity="0.44" stroke-width="1.65807"/>
<path opacity="0.586207" d="M356.226 314.994C348.973 309.519 339.446 307.306 327.857 308.201C316.26 309.098 302.652 313.106 287.325 320.011C256.671 333.822 219.302 359.15 177.676 393.972C94.4343 463.607 -5.68681 571.09 -102.94 699.917C-200.193 828.745 -276.132 954.482 -320.297 1053.62C-342.382 1103.19 -356.503 1146.07 -361.387 1179.33C-363.829 1195.97 -363.955 1210.15 -361.64 1221.55C-359.326 1232.94 -354.587 1241.5 -347.335 1246.97C-340.082 1252.45 -330.555 1254.66 -318.966 1253.77C-307.369 1252.87 -293.761 1248.86 -278.434 1241.96C-247.78 1228.15 -210.411 1202.82 -168.785 1168C-85.5434 1098.36 14.5778 990.877 111.831 862.05C209.084 733.223 285.023 607.485 329.188 508.35C351.273 458.776 365.394 415.897 370.278 382.633C372.72 366 372.846 351.815 370.531 340.417C368.217 329.025 363.478 320.469 356.226 314.994Z" stroke="#7A7A7A" stroke-opacity="0.44" stroke-width="1.65807"/>
<path opacity="0.62069" d="M318.571 284.288C310.869 279.466 301.186 278.092 289.719 279.994C278.244 281.898 265.037 287.076 250.37 295.291C221.037 311.721 186.017 340.209 147.585 378.527C70.729 455.153 -19.6434 570.953 -105.298 707.766C-190.953 844.579 -255.645 976.457 -291.002 1079.06C-308.682 1130.37 -319.012 1174.32 -320.978 1207.88C-321.961 1224.67 -320.85 1238.81 -317.551 1249.96C-314.253 1261.11 -308.786 1269.22 -301.084 1274.04C-293.382 1278.86 -283.698 1280.24 -272.231 1278.33C-260.757 1276.43 -247.55 1271.25 -232.883 1263.04C-203.55 1246.61 -168.53 1218.12 -130.097 1179.8C-53.2415 1103.18 37.1309 987.376 122.786 850.563C208.441 713.75 273.132 581.872 308.489 479.265C326.17 427.955 336.499 384.009 338.465 350.445C339.448 333.663 338.337 319.521 335.038 308.367C331.74 297.221 326.274 289.111 318.571 284.288Z" stroke="#7A7A7A" stroke-opacity="0.44" stroke-width="1.65807"/>
<path opacity="0.655172" d="M278.561 257.347C270.468 253.214 260.701 252.689 249.443 255.583C238.179 258.48 225.473 264.79 211.578 274.252C183.788 293.176 151.385 324.608 116.438 366.129C46.553 449.162 -33.3829 572.397 -106.788 716.155C-180.193 859.913 -233.144 996.927 -259.424 1102.23C-272.565 1154.88 -279.025 1199.56 -278.058 1233.17C-277.575 1249.97 -275.236 1263.96 -270.977 1274.79C-266.72 1285.6 -260.567 1293.21 -252.474 1297.34C-244.381 1301.47 -234.615 1302 -223.357 1299.1C-212.092 1296.21 -199.387 1289.9 -185.492 1280.43C-157.702 1261.51 -125.299 1230.08 -90.3517 1188.56C-20.4668 1105.52 59.4691 982.288 132.874 838.53C206.279 694.772 259.23 557.758 285.51 452.46C298.651 399.804 305.111 355.125 304.145 321.518C303.661 304.714 301.322 290.722 297.063 279.899C292.806 269.082 286.654 261.479 278.561 257.347Z" stroke="#7A7A7A" stroke-opacity="0.44" stroke-width="1.65807"/>
<path opacity="0.689655" d="M236.528 234.364C228.105 230.953 218.33 231.28 207.367 235.145C196.398 239.013 184.291 246.406 171.273 257.043C145.238 278.317 115.698 312.453 84.5027 356.863C22.1205 445.67 -46.7705 575.404 -107.367 725.012C-167.963 874.621 -208.771 1015.73 -225.774 1122.92C-234.276 1176.52 -236.817 1221.59 -232.925 1254.98C-230.979 1271.68 -227.429 1285.42 -222.243 1295.83C-217.06 1306.23 -210.268 1313.27 -201.846 1316.68C-193.423 1320.09 -183.648 1319.77 -172.685 1315.9C-161.716 1312.03 -149.609 1304.64 -136.591 1294C-110.557 1272.73 -81.0158 1238.59 -49.8208 1194.18C12.5615 1105.38 81.4525 975.642 142.049 826.033C202.645 676.425 243.453 535.317 260.456 428.129C268.958 374.529 271.499 329.456 267.607 296.061C265.661 279.363 262.111 265.629 256.925 255.218C251.742 244.813 244.95 237.776 236.528 234.364Z" stroke="#7A7A7A" stroke-opacity="0.44" stroke-width="1.65807"/>
<path opacity="0.724138" d="M192.828 215.499C184.14 212.835 174.43 214.013 163.846 218.819C153.256 223.628 141.839 232.048 129.798 243.779C105.717 267.241 79.2635 303.822 52.0577 350.782C-2.34709 444.688 -59.6689 579.932 -106.995 734.253C-154.322 888.573 -182.677 1032.7 -190.272 1140.96C-194.07 1195.1 -192.673 1240.22 -185.886 1273.15C-182.492 1289.62 -177.758 1302.99 -171.685 1312.91C-165.615 1322.82 -158.235 1329.24 -149.547 1331.9C-140.86 1334.57 -131.15 1333.39 -120.566 1328.58C-109.976 1323.78 -98.5588 1315.36 -86.5178 1303.62C-62.4364 1280.16 -35.9832 1243.58 -8.77742 1196.62C45.6273 1102.72 102.949 967.472 150.276 813.151C197.602 658.831 225.957 514.703 233.552 406.442C237.35 352.304 235.954 307.182 229.166 274.253C225.772 257.788 221.039 244.415 214.965 234.496C208.895 224.583 201.515 218.164 192.828 215.499Z" stroke="#7A7A7A" stroke-opacity="0.44" stroke-width="1.65807"/>
<path opacity="0.758621" d="M147.824 200.883C138.938 198.987 129.368 201.007 119.243 206.716C109.112 212.43 98.4721 221.813 87.4994 234.549C65.5545 260.021 42.3902 298.768 19.3807 347.92C-26.6325 446.21 -71.9489 585.936 -105.645 743.794C-139.342 901.652 -155.027 1047.7 -153.158 1156.21C-152.223 1210.48 -146.899 1255.31 -137.267 1287.52C-132.451 1303.62 -126.571 1316.53 -119.655 1325.89C-112.744 1335.23 -104.833 1340.98 -95.9465 1342.88C-87.0597 1344.78 -77.4897 1342.76 -67.3648 1337.05C-57.2338 1331.33 -46.5943 1321.95 -35.6216 1309.21C-13.6767 1283.74 9.48756 1245 32.4971 1195.84C78.5103 1097.55 123.827 957.828 157.523 799.97C191.219 642.112 206.905 496.061 205.036 387.55C204.101 333.287 198.777 288.458 189.145 256.246C184.329 240.14 178.448 227.23 171.533 217.878C164.622 208.532 156.711 202.78 147.824 200.883Z" stroke="#7A7A7A" stroke-opacity="0.44" stroke-width="1.65807"/>
<path opacity="0.793103" d="M101.894 190.613C92.8758 189.498 83.5183 192.345 73.9295 198.915C64.335 205.49 54.5539 215.764 44.7329 229.408C25.0914 256.696 5.39246 297.315 -13.2457 348.285C-50.5172 450.212 -83.4832 593.355 -103.293 753.549C-123.103 913.743 -126 1060.61 -114.68 1168.54C-109.02 1222.52 -99.809 1266.71 -87.4064 1297.96C-81.2049 1313.59 -74.2213 1325.93 -66.5174 1334.65C-58.8181 1343.36 -50.4358 1348.4 -41.4175 1349.51C-32.3992 1350.63 -23.0417 1347.78 -13.453 1341.21C-3.85848 1334.63 5.92271 1324.36 15.7437 1310.72C35.3851 1283.43 55.0841 1242.81 73.7222 1191.84C110.994 1089.91 143.96 946.769 163.77 786.575C183.58 626.381 186.476 479.519 175.157 371.583C169.496 317.608 160.286 273.414 147.883 242.164C141.681 226.539 134.698 214.191 126.994 205.477C119.295 196.769 110.912 191.729 101.894 190.613Z" stroke="#7A7A7A" stroke-opacity="0.44" stroke-width="1.65807"/>
<path opacity="0.827586" d="M55.4173 184.752C46.3361 184.427 37.2623 188.078 28.2827 195.46C19.2977 202.845 10.4493 213.933 1.85481 228.382C-15.3336 257.277 -31.4175 299.458 -45.5424 351.859C-73.7885 456.646 -94.1534 602.118 -99.9261 763.429C-105.699 924.74 -95.7845 1071.3 -75.1009 1177.83C-64.7578 1231.11 -51.7302 1274.33 -36.6512 1304.38C-29.1115 1319.41 -21.0783 1331.1 -12.6442 1339.11C-4.2152 1347.11 4.57442 1351.4 13.6556 1351.73C22.7368 1352.05 31.8106 1348.4 40.7902 1341.02C49.7752 1333.64 58.6236 1322.55 67.2181 1308.1C84.4065 1279.21 100.49 1237.02 114.615 1184.62C142.861 1079.84 163.226 934.364 168.999 773.053C174.772 611.742 164.857 465.186 144.174 358.648C133.831 305.372 120.803 262.149 105.724 232.099C98.1844 217.073 90.1511 205.381 81.7171 197.372C73.2881 189.368 64.4985 185.077 55.4173 184.752Z" stroke="#7A7A7A" stroke-opacity="0.44" stroke-width="1.65807"/>
<path opacity="0.862069" d="M8.78301 183.333C-0.291934 183.801 -9.013 188.229 -17.3151 196.365C-25.6222 204.506 -33.4706 216.323 -40.7731 231.465C-55.3777 261.748 -67.724 305.171 -77.2282 358.603C-96.234 465.454 -103.843 612.147 -95.5342 773.347C-87.2258 934.548 -64.5761 1079.68 -34.6857 1184.01C-19.7386 1236.18 -2.99351 1278.11 14.6472 1306.73C23.4677 1321.04 32.4894 1331.99 41.5894 1339.23C50.684 1346.47 59.8141 1349.98 68.889 1349.51C77.964 1349.04 86.6851 1344.61 94.9872 1336.48C103.294 1328.34 111.143 1316.52 118.445 1301.38C133.05 1271.1 145.396 1227.67 154.9 1174.24C173.906 1067.39 181.515 920.696 173.206 759.496C164.898 598.296 142.248 453.162 112.358 348.831C97.4107 296.66 80.6656 254.736 63.0249 226.115C54.2043 211.804 45.1826 200.856 36.0826 193.613C26.9881 186.374 17.858 182.865 8.78301 183.333Z" stroke="#7A7A7A" stroke-opacity="0.44" stroke-width="1.65807"/>
<path opacity="0.896552" d="M-37.6234 186.351C-46.623 187.608 -54.925 192.779 -62.4864 201.608C-70.0524 210.441 -76.841 222.898 -82.796 238.619C-94.7057 270.06 -103.22 314.393 -108.031 368.45C-117.652 476.551 -112.447 623.349 -90.1205 783.212C-67.7942 943.074 -32.5814 1085.68 6.2882 1187.01C25.7255 1237.68 46.0607 1277.99 66.1288 1304.96C76.1631 1318.45 86.1046 1328.57 95.8013 1334.99C105.492 1341.41 114.893 1344.11 123.893 1342.85C132.893 1341.59 141.195 1336.42 148.756 1327.59C156.322 1318.76 163.111 1306.3 169.066 1290.58C180.975 1259.14 189.49 1214.81 194.301 1160.75C203.922 1052.65 198.716 905.854 176.39 745.991C154.064 586.128 118.851 443.521 79.9813 342.192C60.5441 291.522 40.2088 251.217 20.1408 224.242C10.1065 210.755 0.16495 200.635 -9.53174 194.212C-19.2226 187.793 -28.6237 185.094 -37.6234 186.351Z" stroke="#7A7A7A" stroke-opacity="0.44" stroke-width="1.65807"/>
<path opacity="0.931035" d="M-83.4159 193.769C-92.2718 195.806 -100.091 201.681 -106.855 211.135C-113.622 220.595 -119.299 233.595 -123.861 249.775C-132.985 282.135 -137.604 327.041 -137.685 381.312C-137.848 489.84 -119.868 635.626 -83.6935 792.934C-47.5192 950.243 -0.0113629 1089.24 47.5417 1186.79C71.3212 1235.58 95.0919 1273.96 117.435 1299.08C128.606 1311.64 139.392 1320.86 149.612 1326.41C159.825 1331.96 169.426 1333.83 178.281 1331.79C187.137 1329.76 194.957 1323.88 201.72 1314.43C208.487 1304.97 214.164 1291.97 218.727 1275.79C227.851 1243.43 232.469 1198.52 232.551 1144.25C232.713 1035.72 214.733 889.936 178.559 732.627C142.385 575.319 94.8768 436.323 47.3237 338.768C23.5442 289.984 -0.226399 251.606 -22.5691 226.482C-33.7408 213.92 -44.5265 204.706 -54.7461 199.152C-64.9595 193.602 -74.5601 191.733 -83.4159 193.769Z" stroke="#7A7A7A" stroke-opacity="0.44" stroke-width="1.65807"/>
<path opacity="0.965517" d="M-128.213 205.52C-136.858 208.32 -144.136 214.855 -150.049 224.862C-155.966 234.875 -160.489 248.321 -163.623 264.837C-169.893 297.869 -170.58 343.007 -165.931 397.078C-156.634 505.207 -126.016 648.871 -76.2692 802.429C-26.5221 955.986 32.9192 1090.31 88.7938 1183.35C116.735 1229.88 143.76 1266.04 168.207 1289.12C180.431 1300.66 191.979 1308.9 202.643 1313.54C213.302 1318.18 223.029 1319.2 231.673 1316.4C240.318 1313.6 247.596 1307.07 253.509 1297.06C259.426 1287.05 263.949 1273.6 267.084 1257.09C273.353 1224.05 274.04 1178.92 269.391 1124.84C260.094 1016.72 229.476 873.051 179.729 719.494C129.982 565.937 70.5409 431.611 14.6663 338.572C-13.2745 292.046 -40.2996 255.885 -64.7469 232.805C-76.971 221.264 -88.5187 213.025 -99.1834 208.383C-109.842 203.745 -119.569 202.719 -128.213 205.52Z" stroke="#7A7A7A" stroke-opacity="0.44" stroke-width="1.65807"/>
<path d="M-171.639 221.495C-180.007 225.039 -186.688 232.182 -191.706 242.667C-196.728 253.158 -200.062 266.947 -201.745 283.673C-205.111 317.125 -201.861 362.152 -192.518 415.612C-173.832 522.52 -130.81 662.968 -67.8687 811.606C-4.92753 960.243 65.9949 1088.88 129.766 1176.69C161.655 1220.61 191.729 1254.27 218.095 1275.14C231.278 1285.57 243.5 1292.77 254.529 1296.46C265.551 1300.15 275.33 1300.33 283.698 1296.79C292.066 1293.24 298.746 1286.1 303.765 1275.61C308.787 1265.12 312.12 1251.33 313.803 1234.61C317.17 1201.16 313.92 1156.13 304.576 1102.67C285.891 995.761 242.869 855.312 179.927 706.675C116.986 558.038 46.0638 429.404 -17.7071 341.588C-49.5965 297.675 -79.6704 264.007 -106.036 243.145C-119.22 232.714 -131.442 225.512 -142.47 221.818C-153.492 218.126 -163.272 217.952 -171.639 221.495Z" stroke="#7A7A7A" stroke-opacity="0.44" stroke-width="1.65807"/>
</g>
</svg>
