<svg width="104" height="107" viewBox="0 0 104 107" fill="none" xmlns="http://www.w3.org/2000/svg">
<path d="M78 38.9722C62.7004 40.3621 53.9101 41.6408 48.5135 45.866C42.1712 50.814 40.669 59.876 39 78C37.2753 59.2088 35.7175 50.2024 28.7632 45.3656C23.3666 41.5852 14.632 40.3621 0 39.0278C15.2439 37.6379 24.0899 36.3592 29.4308 32.1896C35.8288 27.186 37.331 18.1796 39 0C40.5578 16.7341 41.9486 25.685 47.1227 30.8553C52.2967 36.0257 61.3096 37.4711 78 38.9722Z" fill="white"/>
<path d="M104 92.4897C98.3117 93.0064 95.0435 93.4818 93.0371 95.0527C90.679 96.8924 90.1205 100.262 89.5 107C88.8588 100.014 88.2796 96.665 85.694 94.8667C83.6876 93.4612 80.4401 93.0064 75 92.5103C80.6676 91.9936 83.9565 91.5182 85.9422 89.9679C88.321 88.1076 88.8795 84.7591 89.5 78C90.0792 84.2217 90.5963 87.5495 92.52 89.4718C94.4437 91.3942 97.7946 91.9316 104 92.4897Z" fill="white"/>
</svg>
