<svg id="Layer_1" data-name="Layer 1" xmlns="http://www.w3.org/2000/svg" viewBox="0 0 313.51 87.25"><defs><style>.cls-1{fill:#010101;stroke:#f3f3f3;stroke-miterlimit:10;stroke-width:0.25px;}.cls-2{fill:#0e84ab;}.cls-3{fill:#fff;}</style></defs><rect class="cls-1" x="0.13" y="0.13" width="98" height="87" rx="17.77"/><path class="cls-2" d="M127,445.11l32.91-33.91,15.81,44.58-23.66-5.31,3.27-23.28q-6.14,10.5-12.25,21Z" transform="translate(-120.52 -375.37)"/><path class="cls-2" d="M214.71,443.29,178,413.65l-.33,42,16.44-5.55-10-23.24,17.64,21Z" transform="translate(-120.52 -375.37)"/><path class="cls-3" d="M130.5,436.8l35.65-51.89c3.22,4.65,32.45,42.78,34.94,45.19L173.6,404.78l.86,39.53-13.8-40.18Z" transform="translate(-120.52 -375.37)"/><path class="cls-3" d="M235.59,437.83l-11.68-36.4h9l4.4,15.41c1.27,4.33,2.38,8.45,3.29,13h.11c.92-4.37,2.1-8.69,3.33-12.86l4.63-15.54h8.75l-12.24,36.4Z" transform="translate(-120.52 -375.37)"/><path class="cls-3" d="M272.8,404.06a4.35,4.35,0,1,1-4.34-4.11A4.08,4.08,0,0,1,272.8,404.06Zm-8.46,33.77V411.4h8.23v26.43Z" transform="translate(-120.52 -375.37)"/><path class="cls-3" d="M283.67,437.83c.11-1.75.22-4.89.22-7.89V399.49h8.21v15.06h.11c1.57-2.27,4.31-3.75,8-3.75,6.35,0,11,5.25,10.9,13.35,0,9.52-6,14.27-12.08,14.27a8.67,8.67,0,0,1-7.91-4.27H291l-.34,3.68Zm8.43-11.22a6.31,6.31,0,0,0,.15,1.44,5,5,0,0,0,4.84,3.92c3.49,0,5.66-2.72,5.66-7.47,0-4.11-1.83-7.36-5.65-7.36a5,5,0,0,0-4.83,4.06,7.29,7.29,0,0,0-.17,1.52Z" transform="translate(-120.52 -375.37)"/><path class="cls-3" d="M329.39,404.06a4.35,4.35,0,1,1-4.34-4.11A4.08,4.08,0,0,1,329.39,404.06Zm-8.46,33.77V411.4h8.23v26.43Z" transform="translate(-120.52 -375.37)"/><path class="cls-3" d="M340.48,419.84c0-3.29-.1-6.07-.22-8.44h7.13l.38,3.66h.17a9.59,9.59,0,0,1,8.17-4.26c5.4,0,9.46,3.6,9.46,11.38v15.65h-8.23V423.18c0-3.4-1.21-5.74-4.18-5.74a4.43,4.43,0,0,0-4.16,3.11,5.85,5.85,0,0,0-.29,2v15.25h-8.23Z" transform="translate(-120.52 -375.37)"/><path class="cls-3" d="M383.21,427.26c.24,3.41,3.61,5,7.45,5a22.19,22.19,0,0,0,7.27-1.12l1.11,5.55a25.55,25.55,0,0,1-9.58,1.68c-8.95,0-14.09-5.22-14.09-13.45,0-6.72,4.19-14.15,13.32-14.15,8.57,0,11.8,6.66,11.8,13.2a16.3,16.3,0,0,1-.29,3.26Zm9.65-5.63c0-2-.88-5.36-4.61-5.36-3.48,0-4.88,3.17-5.11,5.36Z" transform="translate(-120.52 -375.37)"/><path class="cls-3" d="M415.76,411.4l2.59,4.42c.78,1.35,1.48,2.65,2.16,3.94h.14c.68-1.43,1.34-2.75,2-4.07L425,411.4h8.92L425.23,424l8.8,13.84h-9.32l-2.64-4.75c-.75-1.31-1.42-2.64-2.05-4h-.14c-.68,1.43-1.35,2.73-2,4l-2.48,4.74h-9l8.95-13.47-8.74-13Z" transform="translate(-120.52 -375.37)"/></svg>