<svg width="288" height="93" viewBox="36 19 215 55" fill="none" xmlns="http://www.w3.org/2000/svg">
<g clip-path="url(#clip0_10841_570)">
<path d="M98.7686 38.9966V53.9172C98.7686 55.3118 98.9121 56.3808 99.2467 57.0779C99.8679 58.333 101.063 58.9374 102.831 58.9374C105.126 58.9374 106.655 58.0542 107.516 56.2878C107.946 55.3118 108.137 54.0568 108.137 52.4299V38.9966H114.924V63.7249H108.424V60.2388C108.376 60.2853 108.233 60.5177 107.946 60.8895C107.707 61.308 107.42 61.6332 107.085 61.9122C106.034 62.7953 105.03 63.4462 104.074 63.7715C103.07 64.0969 101.971 64.2828 100.633 64.2828C96.8567 64.2828 94.3234 62.9348 93.0329 60.3318C92.316 58.8909 91.9336 56.7061 91.9336 53.9172V38.9966H98.7686Z" fill="#10CA00"/>
<path d="M130.35 58.4226C131.928 58.4226 133.266 57.8182 134.317 56.7027C135.369 55.5408 135.943 53.7279 135.943 51.2179C135.943 48.8938 135.417 47.1275 134.413 45.8724C133.361 44.6639 132.023 44.0597 130.302 44.0597C127.96 44.0597 126.335 45.1287 125.475 47.2669C124.997 48.3824 124.758 49.7769 124.758 51.4503C124.758 52.8912 124.997 54.1462 125.523 55.2617C126.431 57.3534 128.056 58.4226 130.35 58.4226ZM128.725 38.389C129.968 38.389 131.115 38.5747 132.071 38.9467C133.648 39.5974 134.987 40.806 135.99 42.5258V38.993H142.443V62.4666C142.443 65.6273 141.869 68.0444 140.77 69.6713C138.906 72.4602 135.226 73.8547 129.872 73.8547C126.622 73.8547 123.945 73.2038 121.89 71.9952C119.835 70.7403 118.688 68.881 118.496 66.4174H125.714C125.905 67.1611 126.24 67.719 126.622 68.0444C127.339 68.6486 128.582 68.9275 130.255 68.9275C132.644 68.9275 134.27 68.1838 135.082 66.6034C135.608 65.6273 135.847 63.9074 135.847 61.5833V59.9566C135.226 61.0256 134.556 61.8157 133.792 62.3736C132.501 63.3497 130.78 63.8145 128.629 63.8145C125.379 63.8145 122.75 62.699 120.838 60.4678C118.879 58.2367 117.875 55.2154 117.875 51.4038C117.875 47.7318 118.831 44.6639 120.695 42.1539C122.607 39.6439 125.284 38.389 128.725 38.389Z" fill="#10CA00"/>
<path d="M152.687 36.0616V43.4522H160.35C161.735 43.4522 162.818 43.1733 163.684 42.6156C164.549 42.0578 164.939 41.0816 164.939 39.6873C164.939 38.1068 164.376 37.0843 163.251 36.6195C162.298 36.2477 161.043 36.0616 159.527 36.0616H152.687ZM152.687 48.9837V57.9082H160.35C161.735 57.9082 162.774 57.7222 163.554 57.3038C164.939 56.6067 165.632 55.2121 165.632 53.1206C165.632 51.4007 164.939 50.1923 163.597 49.5414C162.861 49.1696 161.822 48.9837 160.437 48.9837H152.687ZM161.605 30.2514C165.415 30.3444 168.143 31.5064 169.745 33.8306C170.697 35.2715 171.173 36.9449 171.173 38.9434C171.173 40.9887 170.697 42.6156 169.745 43.8705C169.182 44.5679 168.402 45.1721 167.364 45.7765C168.965 46.3807 170.178 47.3567 170.957 48.7048C171.779 50.0527 172.169 51.6796 172.169 53.6319C172.169 55.5841 171.736 57.3968 170.784 58.9308C170.178 59.9999 169.442 60.883 168.576 61.5802C167.58 62.417 166.368 62.9746 165.026 63.2536C163.684 63.579 162.212 63.7184 160.61 63.7184H146.496V30.2514H161.605Z" fill="#10CA00"/>
<path d="M190.344 51.6827C189.962 51.9616 189.532 52.1475 189.102 52.3334C188.672 52.4728 188.098 52.6124 187.333 52.7517L185.852 53.0308C184.418 53.263 183.414 53.5885 182.84 53.9138C181.789 54.5181 181.263 55.4013 181.263 56.6563C181.263 57.7718 181.598 58.562 182.219 59.0733C182.84 59.5381 183.605 59.817 184.513 59.817C185.947 59.817 187.286 59.3987 188.481 58.562C189.675 57.7718 190.296 56.2844 190.344 54.0998V51.6827ZM186.33 48.6614C187.572 48.522 188.433 48.3359 188.958 48.1037C189.914 47.7318 190.392 47.081 190.392 46.2908C190.392 45.2682 190.01 44.571 189.293 44.1527C188.576 43.7808 187.525 43.5949 186.139 43.5949C184.561 43.5949 183.414 43.9668 182.793 44.7104C182.315 45.2682 181.98 46.0585 181.837 46.988H175.432C175.575 44.8498 176.197 43.037 177.296 41.6427C179.064 39.5045 182.076 38.389 186.33 38.389C189.15 38.389 191.588 38.9467 193.786 40.0157C195.937 41.0848 197.036 43.0835 197.036 46.1049V57.4464C197.036 58.2367 197.036 59.1663 197.084 60.2819C197.132 61.1185 197.227 61.7228 197.466 62.0018C197.657 62.327 197.992 62.5594 198.422 62.7455V63.7215H191.206C191.015 63.2102 190.87 62.7455 190.774 62.327C190.726 61.8622 190.631 61.3974 190.583 60.7932C189.675 61.7692 188.624 62.6059 187.429 63.3032C185.995 64.0933 184.37 64.5118 182.554 64.5118C180.259 64.5118 178.347 63.8609 176.866 62.5594C175.384 61.3045 174.619 59.4916 174.619 57.121C174.619 54.0998 175.814 51.9151 178.204 50.5207C179.542 49.7769 181.502 49.2657 184.083 48.9403L186.33 48.6614Z" fill="#10CA00"/>
<path d="M207.746 55.8203C207.889 56.9823 208.223 57.7724 208.655 58.2838C209.515 59.1204 211.044 59.5852 213.243 59.5852C214.533 59.5852 215.584 59.3993 216.35 58.981C217.115 58.6092 217.497 58.0513 217.497 57.3076C217.497 56.5639 217.21 56.006 216.589 55.6342C215.968 55.2624 213.673 54.6117 209.658 53.6821C206.79 52.9848 204.734 52.1017 203.54 51.079C202.393 50.0564 201.772 48.569 201.772 46.6167C201.772 44.3392 202.727 42.387 204.543 40.76C206.408 39.0866 208.989 38.2965 212.335 38.2965C215.489 38.2965 218.118 38.9007 220.078 40.1093C222.085 41.3643 223.233 43.5025 223.52 46.5237H216.876C216.78 45.6871 216.541 45.0364 216.159 44.525C215.441 43.6884 214.199 43.2236 212.431 43.2236C210.996 43.2236 209.945 43.456 209.324 43.8743C208.703 44.3392 208.414 44.8505 208.414 45.4082C208.414 46.1519 208.75 46.7098 209.419 47.0352C210.04 47.407 212.383 47.9647 216.35 48.848C218.978 49.4521 220.938 50.3353 222.276 51.5904C223.568 52.7988 224.237 54.3793 224.237 56.2386C224.237 58.7021 223.281 60.7009 221.416 62.2347C219.553 63.7686 216.637 64.5588 212.718 64.5588C208.75 64.5588 205.787 63.7222 203.874 62.0952C201.963 60.4683 201.006 58.3766 201.006 55.8203H207.746Z" fill="#10CA00"/>
<path d="M238.861 43.635C237.332 43.635 236.136 44.0998 235.276 45.0759C234.416 46.0056 233.891 47.2605 233.699 48.8874H244.023C243.927 47.1676 243.354 45.8662 242.398 44.9829C241.443 44.0998 240.294 43.635 238.861 43.635ZM238.861 38.3361C240.965 38.3361 242.876 38.708 244.597 39.4981C246.27 40.2418 247.655 41.4504 248.756 43.1236C249.759 44.6111 250.428 46.2845 250.715 48.2367C250.906 49.3522 250.953 51.0256 250.906 53.1173H233.508C233.604 55.6273 234.416 57.3471 235.897 58.3698C236.853 58.974 237.953 59.2993 239.243 59.2993C240.583 59.2993 241.729 58.9275 242.589 58.1374C243.019 57.7655 243.449 57.1613 243.784 56.464H250.619C250.428 57.905 249.616 59.3923 248.23 60.9262C246.079 63.3433 243.019 64.5519 239.1 64.5519C235.849 64.5519 232.981 63.5292 230.545 61.484C228.059 59.4852 226.816 56.1851 226.816 51.5834C226.816 47.307 227.915 44.0069 230.162 41.7292C232.408 39.4516 235.276 38.3361 238.861 38.3361Z" fill="#10CA00"/>
<path d="M69.5287 36.2164V43.6071H77.2905C78.6937 43.6071 79.79 43.3282 80.667 42.7704C81.5441 42.2127 81.9388 41.2365 81.9388 39.8421C81.9388 38.2617 81.3687 37.2391 80.2285 36.7744C79.2638 36.4025 77.992 36.2164 76.4573 36.2164H69.5287ZM69.5287 49.1385V58.0631H77.2905C78.6937 58.0631 79.7461 57.877 80.5355 57.4587C81.9388 56.7615 82.6403 55.367 82.6403 53.2754C82.6403 51.5556 81.9388 50.3471 80.5794 49.6963C79.8339 49.3244 78.7814 49.1385 77.3781 49.1385H69.5287ZM78.5621 30.4062C82.4212 30.4993 85.1838 31.6613 86.8064 33.9854C87.771 35.4263 88.2534 37.0997 88.2534 39.0983C88.2534 41.1435 87.771 42.7704 86.8064 44.0254C86.2363 44.7227 85.4469 45.3269 84.3944 45.9313C86.017 46.5355 87.2449 47.5116 88.0341 48.8596C88.8673 50.2075 89.262 51.8344 89.262 53.7867C89.262 55.739 88.8235 57.5516 87.8587 59.0856C87.2449 60.1548 86.4994 61.0379 85.6223 61.7351C84.6137 62.5718 83.3858 63.1294 82.0265 63.4084C80.667 63.7338 79.1761 63.8732 77.5535 63.8732H63.2578V30.4062H78.5621Z" fill="#10CA00"/>
<path d="M61.4687 19.0771C60.1707 19.2305 58.9433 19.8951 57.8715 20.3456C55.9252 21.1638 53.6196 21.9589 52.7889 23.426C52.3317 24.2329 52.4093 25.1842 52.4093 26.0302C52.4093 26.6347 52.403 27.2347 52.4698 27.8365C52.4974 28.084 52.4544 28.4295 52.7685 28.6163C53.0587 28.7889 53.7016 28.7604 54.0746 28.7605C55.2081 28.7608 56.3432 28.7991 57.4719 28.8025C60.7802 28.8126 64.0889 28.8026 67.3973 28.8026H70.5281C70.9845 28.8026 71.55 28.8593 71.9937 28.7892C72.7882 28.6636 72.793 28.1582 72.793 27.7525C72.793 26.7721 72.7288 25.7891 72.7264 24.8121C72.7239 23.8244 72.2831 22.8675 71.1827 22.1254C70.8228 21.8828 70.3489 21.6975 69.9286 21.4991C69.0204 21.0703 68.0745 20.6724 67.1308 20.2756C66.2718 19.9145 65.3643 19.4622 64.3996 19.2224C63.5678 19.0156 62.3458 18.9735 61.4687 19.0771Z" fill="black" fill-opacity="0.866667"/>
<path d="M49.509 36.8704C49.24 38.0624 48.7496 41.5917 48.6026 41.7053C48.47 41.8075 41.9722 42.1806 41.5204 42.3743C41.2061 42.5089 36.6624 46.4698 36.2754 47.0922C35.7663 47.9104 36.0814 49.0497 36.9048 49.5914C37.4471 49.9482 38.1463 50.0416 38.7983 49.9334C39.6369 49.7942 43.2488 46.4438 43.4731 46.3135C43.8958 46.0678 47.5161 45.948 48.6806 45.9023C48.7915 46.7046 48.8401 52.0526 48.7633 52.2242C48.6809 52.4083 44.1961 54.2462 42.8814 55.0261C41.9384 55.5854 39.7816 61.2901 39.5951 62.2353C39.273 63.8681 41.3146 64.9796 42.8222 64.2758C43.7855 63.826 45.1487 59.0469 45.6606 58.4011C45.9057 58.092 48.9762 56.8559 50.0416 56.3945C50.285 56.9259 50.6511 57.4218 50.9855 57.9088C52.4341 60.0186 54.4796 61.6268 56.9059 62.7354C58.2907 63.3683 59.7827 63.8579 61.3441 63.8579C61.3441 56.2298 61.4745 31.0876 61.3844 30.759C61.321 30.5278 61.0644 30.2934 60.8115 30.2353C60.5561 30.1769 54.1528 30.1529 53.6513 30.346C53.2051 30.5177 52.8836 30.8596 52.5815 31.1917C52.0591 31.7659 51.5425 32.3916 51.2251 33.0845C50.7019 32.8299 46.1508 30.9571 45.9962 30.7982C45.7756 30.5714 43.7627 25.5439 43.3353 25.1597C42.9254 24.791 42.2564 24.6601 41.6978 24.6505C40.4007 24.6281 39.4825 25.6834 39.5729 26.8109C39.6222 27.4256 42.446 33.6453 42.7692 33.9449C43.4217 34.5494 48.9013 36.7184 49.509 36.8704Z" fill="black" fill-opacity="0.866667"/>
</g>
<defs>
<clipPath id="clip0_10841_570">
<rect width="215" height="55" fill="white" transform="translate(36 19)"/>
</clipPath>
</defs>
</svg>
