<svg width="510" height="344" viewBox="0 0 510 344" fill="none" xmlns="http://www.w3.org/2000/svg">
<path d="M335.023 199.145H233.225C228.283 199.145 224.277 203.152 224.277 208.094V334.287C224.277 339.229 228.283 343.235 233.225 343.235H335.023C339.965 343.235 343.971 339.229 343.971 334.287V208.094C343.971 203.152 339.965 199.145 335.023 199.145Z" fill="#C1D8ED"/>
<path d="M334.18 206.85H234.068C232.725 206.85 231.636 207.939 231.636 209.282V333.098C231.636 334.442 232.725 335.53 234.068 335.53H334.18C335.524 335.53 336.613 334.442 336.613 333.098V209.282C336.613 207.939 335.524 206.85 334.18 206.85Z" fill="#DEE8F5"/>
<path d="M311.215 191.67H257.033C254.228 191.67 251.954 193.944 251.954 196.75V209.618C251.954 212.423 254.228 214.697 257.033 214.697H311.215C314.021 214.697 316.295 212.423 316.295 209.618V196.75C316.295 193.944 314.021 191.67 311.215 191.67Z" fill="#C1D8ED"/>
<path d="M330.512 238.458H237.55V241.532H330.512V238.458Z" fill="white"/>
<path d="M288.991 244.507H237.55V247.582H288.991V244.507Z" fill="white"/>
<path d="M251.037 287.705H238.667C238.382 287.705 238.108 287.592 237.906 287.39C237.704 287.188 237.591 286.915 237.591 286.629V274.259C237.591 273.974 237.704 273.7 237.906 273.499C238.108 273.297 238.382 273.183 238.667 273.183H251.037C251.178 273.183 251.318 273.211 251.449 273.265C251.579 273.319 251.698 273.398 251.798 273.498C251.898 273.598 251.977 273.717 252.031 273.848C252.085 273.978 252.113 274.118 252.113 274.259V286.629C252.113 286.77 252.085 286.91 252.031 287.041C251.977 287.172 251.898 287.29 251.798 287.39C251.698 287.49 251.579 287.569 251.449 287.624C251.318 287.678 251.178 287.705 251.037 287.705ZM239.744 285.553H249.962V275.334H239.744V285.553Z" fill="#C1D8ED"/>
<path d="M313.677 275.244H256.153V278.548H313.677V275.244Z" fill="white"/>
<path d="M304.353 282.342H256.153V285.646H304.353V282.342Z" fill="white"/>
<path d="M251.037 329.113H238.667C238.382 329.113 238.108 329 237.906 328.798C237.704 328.596 237.591 328.323 237.591 328.037V315.668C237.591 315.382 237.704 315.109 237.906 314.907C238.108 314.705 238.382 314.592 238.667 314.592H251.037C251.322 314.592 251.596 314.705 251.798 314.907C252 315.109 252.113 315.382 252.113 315.668V328.037C252.113 328.179 252.085 328.319 252.031 328.449C251.977 328.58 251.898 328.699 251.798 328.798C251.698 328.898 251.579 328.978 251.449 329.032C251.318 329.086 251.178 329.114 251.037 329.113ZM239.744 326.961H249.962V316.743H239.744V326.961Z" fill="#C1D8ED"/>
<path d="M313.677 316.651H256.153V319.955H313.677V316.651Z" fill="white"/>
<path d="M304.353 323.75H256.153V327.054H304.353V323.75Z" fill="white"/>
<path d="M251.037 267.001H238.667C238.382 267.001 238.108 266.888 237.906 266.686C237.704 266.484 237.591 266.211 237.591 265.925V253.556C237.591 253.27 237.704 252.997 237.906 252.795C238.108 252.593 238.382 252.48 238.667 252.48H251.037C251.178 252.48 251.318 252.508 251.448 252.562C251.579 252.616 251.698 252.695 251.798 252.795C251.898 252.895 251.977 253.013 252.031 253.144C252.085 253.274 252.113 253.414 252.113 253.556V265.925C252.113 266.067 252.085 266.207 252.031 266.337C251.977 266.468 251.898 266.586 251.798 266.686C251.698 266.786 251.579 266.866 251.449 266.92C251.318 266.974 251.178 267.001 251.037 267.001ZM239.744 264.849H249.962V254.63H239.744V264.849Z" fill="#C1D8ED"/>
<path d="M313.677 254.539H256.153V257.843H313.677V254.539Z" fill="white"/>
<path d="M304.353 261.637H256.153V264.941H304.353V261.637Z" fill="white"/>
<path d="M251.037 308.408H238.667C238.382 308.408 238.108 308.295 237.906 308.093C237.704 307.891 237.591 307.618 237.591 307.332V294.964C237.591 294.678 237.704 294.405 237.906 294.203C238.108 294.001 238.382 293.888 238.667 293.888H251.037C251.178 293.888 251.318 293.915 251.449 293.969C251.579 294.023 251.698 294.103 251.798 294.203C251.898 294.303 251.977 294.421 252.031 294.552C252.085 294.682 252.113 294.822 252.113 294.964V307.333C252.113 307.619 251.999 307.892 251.797 308.094C251.595 308.295 251.322 308.408 251.037 308.408ZM239.744 306.256H249.962V296.038H239.744V306.256Z" fill="#C1D8ED"/>
<path d="M313.677 295.948H256.153V299.252H313.677V295.948Z" fill="white"/>
<path d="M304.353 303.046H256.153V306.35H304.353V303.046Z" fill="white"/>
<path d="M244.157 284.077C244.129 284.077 244.103 284.077 244.075 284.077C243.918 284.066 243.765 284.023 243.625 283.95C243.485 283.878 243.361 283.777 243.262 283.655L240.746 280.568C240.552 280.33 240.461 280.026 240.492 279.721C240.523 279.417 240.673 279.137 240.911 278.943C241.148 278.75 241.453 278.658 241.757 278.689C242.062 278.72 242.342 278.871 242.535 279.108L244.277 281.244L252.862 273.326C252.973 273.223 253.104 273.143 253.246 273.091C253.389 273.039 253.54 273.015 253.691 273.021C253.843 273.027 253.992 273.063 254.129 273.127C254.267 273.19 254.391 273.28 254.494 273.392C254.596 273.503 254.676 273.634 254.729 273.776C254.781 273.919 254.805 274.07 254.799 274.222C254.792 274.373 254.757 274.522 254.693 274.66C254.629 274.797 254.539 274.921 254.428 275.024L244.94 283.771C244.727 283.968 244.447 284.077 244.157 284.077Z" fill="white"/>
<path d="M474.318 304.721C479.065 304.721 483.762 303.76 488.127 301.895C492.491 300.03 496.433 297.3 499.714 293.87C502.996 290.441 505.548 286.382 507.218 281.939C508.888 277.496 509.64 272.76 509.43 268.019C508.276 241.866 494.901 204.936 442.187 168.031C377.905 123.026 406.895 -6.5503 270.315 2.39066C133.735 11.3316 146.755 107.091 63.0064 150.981C9.69898 178.92 0.00346392 233.584 0 269.629C0.00872395 278.943 3.71606 287.872 10.3068 294.452C16.8975 301.033 25.832 304.727 35.1455 304.721H474.318Z" fill="#F3F5FD"/>
<path d="M421.044 7.47516H319.246C314.304 7.47516 310.297 11.4815 310.297 16.4236V142.617C310.297 147.559 314.304 151.565 319.246 151.565H421.044C425.986 151.565 429.992 147.559 429.992 142.617V16.4236C429.992 11.4815 425.986 7.47516 421.044 7.47516Z" fill="#C1D8ED"/>
<path d="M420.201 15.1795H320.089C318.746 15.1795 317.657 16.2685 317.657 17.6118V141.428C317.657 142.771 318.746 143.86 320.089 143.86H420.201C421.544 143.86 422.633 142.771 422.633 141.428V17.6118C422.633 16.2685 421.544 15.1795 420.201 15.1795Z" fill="#DEE8F5"/>
<path d="M397.236 0H343.054C340.249 0 337.975 2.27406 337.975 5.07926V17.9477C337.975 20.7529 340.249 23.027 343.054 23.027H397.236C400.041 23.027 402.315 20.7529 402.315 17.9477V5.07926C402.315 2.27406 400.041 0 397.236 0Z" fill="#C1D8ED"/>
<path d="M416.533 46.7872H323.57V49.8614H416.533V46.7872Z" fill="white"/>
<path d="M375.012 52.8369H323.57V55.9111H375.012V52.8369Z" fill="white"/>
<path d="M337.057 96.0349H324.687C324.402 96.0349 324.128 95.9215 323.927 95.7197C323.725 95.5179 323.611 95.2442 323.611 94.9588V82.5891C323.611 82.3037 323.725 82.03 323.927 81.8282C324.128 81.6264 324.402 81.513 324.687 81.513H337.057C337.198 81.5129 337.338 81.5407 337.469 81.5948C337.6 81.6488 337.718 81.728 337.818 81.828C337.918 81.9279 337.998 82.0466 338.052 82.1772C338.106 82.3078 338.134 82.4478 338.134 82.5891V94.9588C338.134 95.1002 338.106 95.2401 338.052 95.3707C337.998 95.5013 337.918 95.62 337.818 95.7199C337.718 95.8199 337.6 95.8991 337.469 95.9532C337.338 96.0072 337.198 96.035 337.057 96.0349ZM325.764 93.8827H335.983V83.6641H325.764V93.8827Z" fill="#C1D8ED"/>
<path d="M399.697 83.5734H342.174V86.8774H399.697V83.5734Z" fill="white"/>
<path d="M390.373 90.6716H342.174V93.9756H390.373V90.6716Z" fill="white"/>
<path d="M337.057 137.443H324.687C324.402 137.443 324.128 137.33 323.927 137.128C323.725 136.926 323.611 136.652 323.611 136.367V123.997C323.611 123.712 323.725 123.438 323.927 123.237C324.128 123.035 324.402 122.921 324.687 122.921H337.057C337.343 122.921 337.616 123.035 337.818 123.236C338.02 123.438 338.134 123.712 338.134 123.997V136.367C338.134 136.508 338.106 136.648 338.052 136.779C337.998 136.91 337.918 137.028 337.818 137.128C337.718 137.228 337.6 137.307 337.469 137.361C337.338 137.415 337.198 137.443 337.057 137.443ZM325.764 135.291H335.983V125.072H325.764V135.291Z" fill="#C1D8ED"/>
<path d="M399.697 124.981H342.174V128.285H399.697V124.981Z" fill="white"/>
<path d="M390.373 132.079H342.174V135.383H390.373V132.079Z" fill="white"/>
<path d="M337.057 75.331H324.687C324.402 75.331 324.128 75.2176 323.927 75.0158C323.725 74.814 323.611 74.5403 323.611 74.2549V61.8852C323.611 61.5999 323.725 61.3264 323.927 61.1247C324.128 60.923 324.402 60.8097 324.687 60.8097H337.057C337.198 60.8096 337.338 60.8374 337.469 60.8914C337.6 60.9454 337.718 61.0246 337.818 61.1245C337.918 61.2243 337.998 61.3429 338.052 61.4735C338.106 61.604 338.134 61.7439 338.134 61.8852V74.2549C338.134 74.3963 338.106 74.5363 338.052 74.6669C337.998 74.7975 337.918 74.9161 337.818 75.016C337.718 75.116 337.6 75.1952 337.469 75.2493C337.338 75.3033 337.198 75.3311 337.057 75.331ZM325.764 73.1788H335.983V62.9602H325.764V73.1788Z" fill="#C1D8ED"/>
<path d="M399.697 62.869H342.174V66.173H399.697V62.869Z" fill="white"/>
<path d="M390.373 69.9672H342.174V73.2712H390.373V69.9672Z" fill="white"/>
<path d="M337.057 116.738H324.687C324.402 116.738 324.128 116.625 323.927 116.423C323.725 116.221 323.611 115.947 323.611 115.662V103.294C323.611 103.008 323.725 102.734 323.927 102.533C324.128 102.331 324.402 102.217 324.687 102.217H337.057C337.198 102.217 337.338 102.245 337.469 102.299C337.6 102.353 337.718 102.432 337.818 102.532C337.918 102.632 337.998 102.751 338.052 102.882C338.106 103.012 338.134 103.152 338.134 103.294V115.663C338.133 115.948 338.02 116.222 337.818 116.423C337.616 116.625 337.342 116.738 337.057 116.738ZM325.764 114.586H335.983V104.367H325.764V114.586Z" fill="#C1D8ED"/>
<path d="M399.697 104.277H342.174V107.581H399.697V104.277Z" fill="white"/>
<path d="M390.373 111.375H342.174V114.679H390.373V111.375Z" fill="white"/>
<path d="M330.178 92.407C330.15 92.407 330.123 92.407 330.096 92.407C329.938 92.3958 329.785 92.3526 329.645 92.2799C329.505 92.2072 329.382 92.1067 329.282 91.9844L326.766 88.8975C326.573 88.6602 326.481 88.3557 326.512 88.051C326.543 87.7463 326.694 87.4664 326.931 87.2729C327.169 87.0794 327.473 86.988 327.778 87.019C328.082 87.05 328.362 87.2007 328.556 87.438L330.297 89.5741L338.882 81.6556C338.994 81.5528 339.125 81.4729 339.267 81.4206C339.409 81.3683 339.56 81.3445 339.712 81.3507C339.864 81.3568 340.012 81.3927 340.15 81.4564C340.288 81.5201 340.411 81.6102 340.514 81.7217C340.617 81.8332 340.697 81.9638 340.749 82.1062C340.801 82.2485 340.825 82.3997 340.819 82.5513C340.813 82.7028 340.777 82.8516 340.713 82.9893C340.65 83.1269 340.56 83.2507 340.448 83.3535L330.96 92.101C330.747 92.2978 330.468 92.407 330.178 92.407Z" fill="white"/>
<path d="M237.479 164.44C239.158 164.756 249.314 166.529 249.982 165.178C250.386 164.37 246.392 162.571 246.392 162.571" fill="#E98862"/>
<path d="M240.223 156.927C240.223 156.927 254.786 154.855 260.297 161.389C260.437 161.555 260.524 161.76 260.545 161.977C260.567 162.194 260.523 162.412 260.419 162.603C260.315 162.794 260.156 162.95 259.962 163.049C259.768 163.148 259.549 163.186 259.333 163.159C254.895 162.59 248.275 162.501 246.22 164.867C245.024 166.246 238.921 164.711 238.921 164.711" fill="#E98862"/>
<path d="M151.872 214.944L128.374 304.277L131.724 305.159L155.222 215.826L151.872 214.944Z" fill="#C1D8ED"/>
<path d="M193.513 215.116L190.091 215.653L204.098 304.987L207.52 304.451L193.513 215.116Z" fill="#C1D8ED"/>
<path d="M148.728 129.693C148.728 129.693 120.113 127.885 120.113 152.886C120.113 177.887 124.327 212.827 145.414 216.742C166.502 220.657 197.651 219.477 204.883 218.252C213.769 216.746 217.642 196.134 205.807 194.755C172.222 190.839 188.487 132.404 148.728 129.693Z" fill="#C1D8ED"/>
<path d="M203.43 287.43L202.341 301.551L214.429 302.483L215.518 288.362L203.43 287.43Z" fill="#E98862"/>
<path d="M229.789 304.613C230.1 304.612 230.408 304.549 230.695 304.428C230.982 304.308 231.243 304.132 231.462 303.911C231.681 303.69 231.855 303.428 231.972 303.139C232.09 302.851 232.15 302.542 232.149 302.231C232.149 302.173 232.149 302.116 232.142 302.058C232.107 301.607 231.944 301.176 231.672 300.815C231.4 300.454 231.031 300.179 230.607 300.021L216.495 295.293C216.222 295.203 215.932 295.173 215.646 295.204C215.36 295.236 215.084 295.33 214.837 295.478C212.897 296.824 210.577 297.512 208.216 297.441C206.378 297.311 204.614 296.666 203.124 295.58C202.994 295.473 202.835 295.405 202.667 295.384C202.499 295.364 202.328 295.392 202.175 295.464C202.022 295.537 201.893 295.651 201.803 295.795C201.712 295.938 201.665 296.104 201.665 296.273V303.173C201.665 303.583 201.828 303.977 202.118 304.266C202.408 304.556 202.801 304.719 203.211 304.719H203.217L229.789 304.613Z" fill="#C1D8ED"/>
<path d="M263.543 286.89L251.587 288.901L253.962 303.022L265.918 301.011L263.543 286.89Z" fill="#E98862"/>
<path d="M269.724 289.982L243.102 187.575C242.507 185.287 241.17 183.261 239.3 181.815C237.43 180.368 235.132 179.583 232.768 179.582H174.431V179.62H141.75V189.635C141.749 192.523 142.318 195.382 143.423 198.05C144.528 200.718 146.148 203.142 148.189 205.184C150.231 207.225 152.655 208.845 155.323 209.95C157.99 211.055 160.85 211.624 163.737 211.624H179.677V211.687H207.504L199.842 293.153L221.109 295.153L228.518 216.375L249.047 295.355L269.724 289.982Z" fill="#262626"/>
<path d="M204.206 164.125L242.14 166.585L244.3 155.202L207.066 151.75L190.884 122.809C190.338 121.834 189.874 120.816 189.411 119.799C187.749 116.143 184.446 113.751 178.349 113.488C177.985 113.477 177.402 113.46 176.652 113.448C176.501 116.623 156.832 116.612 156.416 113.373C150.863 113.379 146.302 115.088 143.669 117.72C134.576 126.813 145.736 142.308 145.736 154.432C145.736 166.556 140.251 171.994 140.656 178.218C141.291 187.997 188.821 185.688 191.24 180.128C192.863 176.404 191.291 173.605 190.053 166.944H211.024V161.099M188.899 152.123C188.923 150.083 189.081 147.949 189.297 145.777L194.089 154.356H188.899C188.892 153.634 188.889 152.896 188.899 152.123Z" fill="#367CFF"/>
<path d="M176.652 113.447C176.502 116.623 174.77 121.293 169.447 121.64C162.34 122.113 156.833 116.611 156.417 113.372H156.44C163.426 113.373 172.57 113.385 176.652 113.447Z" fill="#E98862"/>
<path d="M279.613 304.613C279.925 304.612 280.233 304.549 280.52 304.428C280.807 304.308 281.068 304.132 281.287 303.91C281.506 303.689 281.679 303.427 281.797 303.138C281.915 302.85 281.975 302.541 281.973 302.23C281.973 302.172 281.973 302.114 281.966 302.057C281.931 301.606 281.768 301.175 281.496 300.814C281.224 300.453 280.855 300.177 280.431 300.019L266.32 295.293C266.047 295.202 265.757 295.172 265.471 295.204C265.185 295.236 264.909 295.329 264.662 295.478C262.722 296.823 260.402 297.511 258.042 297.44C256.203 297.31 254.439 296.665 252.949 295.58C252.818 295.472 252.659 295.405 252.491 295.384C252.323 295.364 252.153 295.391 252 295.464C251.847 295.537 251.718 295.651 251.628 295.794C251.538 295.937 251.49 296.103 251.49 296.272V303.173C251.49 303.583 251.653 303.976 251.943 304.266C252.233 304.556 252.626 304.719 253.036 304.719H253.043L279.613 304.613Z" fill="#C1D8ED"/>
<path d="M114.096 172.54H108.674V304.721H114.096V172.54Z" fill="#DEE8F5"/>
<path d="M375.607 172.54H370.185V304.721H375.607V172.54Z" fill="#C1D8ED"/>
<path d="M375.606 170.883H326.71V295.683H375.606V170.883Z" fill="#C1D8ED"/>
<path d="M322.37 286.645H316.949V304.721H322.37V286.645Z" fill="#C1D8ED"/>
<path d="M383.102 167.081H101.178V174.535H383.102V167.081Z" fill="#DEE8F5"/>
<path d="M329.421 172.54H324V304.721H329.421V172.54Z" fill="#DEE8F5"/>
<path d="M276.185 172.54H270.763V304.721H276.185V172.54Z" fill="#DEE8F5"/>
<path d="M326.71 174.545H273.474V295.683H326.71V174.545Z" fill="#DEE8F5"/>
<path d="M270.79 133.711L263.78 163.139C263.671 163.596 263.668 164.073 263.769 164.532C263.871 164.992 264.075 165.422 264.367 165.792C264.658 166.161 265.03 166.46 265.453 166.665C265.877 166.87 266.341 166.977 266.812 166.977H308.139C308.821 166.977 309.485 166.753 310.028 166.339C310.571 165.925 310.963 165.344 311.144 164.686L319.222 135.259C319.348 134.797 319.367 134.311 319.275 133.84C319.184 133.369 318.985 132.926 318.694 132.545C318.403 132.163 318.028 131.854 317.599 131.641C317.169 131.428 316.696 131.317 316.216 131.317H273.823C273.122 131.317 272.441 131.553 271.891 131.988C271.341 132.422 270.953 133.029 270.79 133.711Z" fill="#9EBCEA"/>
<path d="M249.068 166.979H299.017C299.503 166.979 299.969 166.786 300.312 166.443C300.656 166.1 300.849 165.634 300.849 165.148C300.849 164.662 300.656 164.197 300.312 163.853C299.969 163.51 299.503 163.317 299.017 163.317H249.068C248.582 163.317 248.117 163.51 247.773 163.853C247.43 164.197 247.237 164.662 247.237 165.148C247.237 165.634 247.43 166.1 247.773 166.443C248.117 166.786 248.582 166.979 249.068 166.979Z" fill="#9EBCEA"/>
<path d="M293.193 153.747C295.893 153.747 298.081 151.558 298.081 148.859C298.081 146.16 295.893 143.971 293.193 143.971C290.494 143.971 288.306 146.16 288.306 148.859C288.306 151.558 290.494 153.747 293.193 153.747Z" fill="white"/>
<path d="M207.066 166.585C208.775 166.585 219.082 166.445 219.49 164.995C219.735 164.125 215.479 163.098 215.479 163.098" fill="#E98862"/>
<path d="M216.597 167.188C216.597 163.24 220.448 160.039 225.199 160.039C229.951 160.039 233.801 163.24 233.801 167.188" fill="#DEE8F5"/>
<path d="M208.368 158.694C208.368 158.694 222.295 153.96 228.921 159.361C229.089 159.498 229.213 159.684 229.274 159.892C229.336 160.101 229.333 160.324 229.266 160.531C229.199 160.738 229.071 160.92 228.899 161.054C228.727 161.187 228.519 161.265 228.301 161.278C223.835 161.541 217.313 162.68 215.732 165.387C214.812 166.963 208.531 166.585 208.531 166.585" fill="#E98862"/>
<path d="M211.024 156.775H193.897V166.944H211.024V156.775Z" fill="#367CFF"/>
<path d="M61.4103 279.234C57.7258 278.176 54.9524 274.879 53.8503 271.209C52.7481 267.538 53.1367 263.554 54.2134 259.874C55.0915 256.872 56.4228 253.97 56.7507 250.859C57.843 240.501 47.7959 229.917 52.5236 220.636C54.0529 217.634 57.0111 215.29 57.5393 211.963C57.9764 209.212 56.6208 206.536 55.9471 203.835C55.0199 200.115 55.4898 195.895 57.903 192.916C60.3162 189.938 64.8765 188.636 68.2019 190.543C72.5514 193.039 72.9284 199.198 71.8107 204.086C70.693 208.973 68.621 214.002 69.9869 218.826C71.2888 223.425 75.5252 226.887 76.2843 231.606C76.9159 235.528 75.0015 239.352 74.1598 243.235C72.8377 249.338 74.1835 255.664 74.2412 261.908C74.2989 268.151 72.5364 275.155 61.4103 279.234Z" fill="#8DDBE0"/>
<path d="M55.7243 279.826C53.5319 279.13 51.5645 277.862 50.0239 276.153C48.4834 274.445 47.4253 272.357 46.9583 270.104C46.2372 266.389 47.1229 262.216 45.0895 259.024C42.334 254.699 39.508 254.21 36.0781 250.398C30.8032 244.535 30.6178 241.939 30.966 231.083C31.1132 226.492 24.7736 221.31 27.0061 216.899C28.9731 213.013 34.9524 212.993 38.343 215.728C41.7336 218.463 43.2231 222.846 44.701 226.944C46.1789 231.042 48.0408 235.377 51.7859 237.602C54.0322 238.935 56.9725 239.552 58.2132 241.851C59.2102 243.698 58.7079 245.953 58.3073 248.013C57.2999 253.192 57.5527 259.511 61.8988 262.504C63.8617 263.854 66.4279 264.319 68.0403 266.07C69.6343 267.802 69.8912 270.368 69.7832 272.719C69.5712 277.24 68.3258 281.651 66.1427 285.615" fill="#DEE8F5"/>
<path d="M60.9652 283.434C59.0483 281.15 57.8929 278.324 57.6607 275.351C57.4284 272.379 58.1308 269.408 59.6697 266.854C62.3306 262.64 67.2903 259.735 68.3295 254.859C69.2567 250.517 66.6847 246.026 67.4548 241.656C68.292 236.9 72.6848 233.781 76.1724 230.443C77.0806 229.632 77.8618 228.688 78.4897 227.645C80.0243 224.883 79.5965 221.494 80.1172 218.377C81.1154 212.408 86.033 207.114 92.0037 206.128C97.2405 205.262 100.992 208.27 100.992 213.811C100.992 220.374 96.0749 223.186 93.567 226.157C89.9643 230.459 88.0523 235.926 88.1887 241.535C88.3654 247.801 91.0332 254.472 88.1829 260.054C86.0913 264.153 81.6234 266.336 78.1133 269.308C75.4607 271.581 73.3014 274.373 71.7683 277.511C70.2352 280.65 69.3608 284.069 69.1989 287.559" fill="white"/>
<path d="M77.8556 273.143H46.2773V304.721H77.8556V273.143Z" fill="#0CBC8B"/>
<g opacity="0.42">
<path d="M77.8556 279.3H46.2773V285.464H77.8556V279.3Z" fill="white"/>
</g>
<path d="M158.114 116.662C158.114 116.662 162.578 114.295 161.581 102.139L170.804 100.428C170.804 100.428 169.765 111.328 174.435 114.788L158.114 116.662Z" fill="#E98862"/>
<g opacity="0.15">
<path d="M172.544 112.509L164.883 106.647L170.901 106.585C171.075 108.645 171.632 110.654 172.544 112.509Z" fill="black"/>
</g>
<path d="M156.347 97.4251C156.986 101.113 158.998 104.606 162.252 105.796C166.114 107.21 168.974 107.306 173.427 107.306C179.504 107.306 179.303 100.969 179.474 94.5829C179.647 88.1712 179.135 81.2936 176.734 79.0594C171.942 74.6001 157.871 77.4244 156.159 84.8834C155.274 88.7422 155.739 93.9144 156.347 97.4251Z" fill="#E98862"/>
<path d="M182.731 82.7675C182.731 82.7675 185.219 82.2115 184.538 79.7302C184.086 78.0843 181.978 78.4497 181.978 78.4497C181.978 78.4497 183.974 78.0843 183.974 76.3413C183.974 75.2444 183.13 73.3832 180.585 74.4466C177.598 75.6942 174.191 75.5337 171.601 75.0984C170.136 74.7775 168.648 74.5676 167.152 74.4702H167.144C165.423 74.4401 163.708 74.6696 162.056 75.1509C157.425 76.5365 150.418 80.6874 151.907 90.0995C153.57 100.603 158.499 104.62 160.668 105.909C160.796 105.986 160.94 106.033 161.089 106.047C161.239 106.06 161.389 106.039 161.529 105.986C161.669 105.933 161.795 105.849 161.898 105.739C162 105.63 162.077 105.499 162.121 105.356C162.736 103.388 163.796 98.4342 163.5 88.2203C177.732 87.5223 181.826 87.3104 181.826 87.3104C181.826 87.3104 185.175 87.4363 185.175 84.9884C185.175 82.5406 182.731 82.7675 182.731 82.7675Z" fill="#0F1011"/>
<path d="M170.792 94.5841C171.254 94.5841 171.628 94.2096 171.628 93.7476C171.628 93.2855 171.254 92.911 170.792 92.911C170.33 92.911 169.955 93.2855 169.955 93.7476C169.955 94.2096 170.33 94.5841 170.792 94.5841Z" fill="#0F1011"/>
<path d="M177.391 94.0431C177.853 94.0431 178.228 93.6686 178.228 93.2066C178.228 92.7446 177.853 92.3701 177.391 92.3701C176.929 92.3701 176.555 92.7446 176.555 93.2066C176.555 93.6686 176.929 94.0431 177.391 94.0431Z" fill="#0F1011"/>
<path d="M178.841 91.4238H178.836L176.62 91.3961C176.516 91.3946 176.416 91.3518 176.343 91.2772C176.271 91.2025 176.23 91.102 176.231 90.9978C176.234 90.894 176.277 90.7954 176.352 90.723C176.426 90.6505 176.525 90.6099 176.629 90.6098L178.846 90.6375C178.95 90.6381 179.05 90.6801 179.123 90.7543C179.196 90.8285 179.237 90.9287 179.236 91.033C179.236 91.1372 179.194 91.237 179.12 91.3103C179.045 91.3836 178.945 91.4244 178.841 91.4238Z" fill="#0F1011"/>
<path d="M168.986 92.2315C168.89 92.2313 168.797 92.1958 168.725 92.1318C168.654 92.0678 168.608 91.9798 168.596 91.8843C168.585 91.7888 168.609 91.6925 168.664 91.6136C168.719 91.5347 168.801 91.4787 168.895 91.4562L171.079 90.9308C171.18 90.9079 171.286 90.9256 171.374 90.9801C171.462 91.0346 171.524 91.1216 171.549 91.2221C171.573 91.3226 171.557 91.4286 171.503 91.5172C171.45 91.6057 171.364 91.6697 171.263 91.6952L169.078 92.2205C169.048 92.2278 169.017 92.2315 168.986 92.2315Z" fill="#0F1011"/>
<path d="M166.441 95.7947C166.486 96.2625 166.438 96.7346 166.298 97.1835C166.159 97.6324 165.932 98.0491 165.631 98.4095C165.329 98.7699 164.959 99.0668 164.542 99.2829C164.124 99.4989 163.668 99.6299 163.2 99.6681C162.731 99.7064 162.26 99.6512 161.813 99.5057C161.366 99.3602 160.953 99.1274 160.597 98.8207C160.241 98.514 159.949 98.1396 159.739 97.7192C159.529 97.2989 159.404 96.8409 159.373 96.372C159.326 95.9063 159.374 95.4361 159.514 94.9893C159.653 94.5425 159.881 94.1283 160.184 93.7715C160.486 93.4146 160.858 93.1223 161.276 92.9119C161.694 92.7016 162.15 92.5776 162.617 92.5473C165.143 92.4676 166.28 93.8422 166.441 95.7947Z" fill="#E98862"/>
<g opacity="0.15">
<path d="M174.505 98.3875C174.436 98.3875 174.369 98.3627 174.316 98.3176C174.264 98.2725 174.229 98.2101 174.219 98.1417C174.209 98.0733 174.223 98.0035 174.26 97.945C174.297 97.8865 174.354 97.8431 174.42 97.8228L176.121 97.3004L174.931 94.6505C174.899 94.5806 174.897 94.5011 174.924 94.4295C174.951 94.3578 175.006 94.3 175.076 94.2686C175.146 94.2372 175.225 94.2349 175.297 94.2621C175.369 94.2893 175.426 94.3439 175.458 94.4138L176.782 97.3622C176.798 97.3995 176.807 97.4399 176.807 97.4809C176.807 97.5218 176.798 97.5623 176.781 97.5995C176.764 97.6368 176.74 97.6701 176.709 97.6972C176.678 97.7242 176.642 97.7444 176.603 97.7565L174.59 98.3748C174.562 98.3831 174.533 98.3874 174.505 98.3875Z" fill="black"/>
</g>
<path d="M171.178 100.336C171.178 100.336 174.266 100.662 176.432 99.9053C176.432 99.9053 176.415 101.939 173.971 102.139C171.528 102.34 171.178 100.336 171.178 100.336Z" fill="white"/>
<path d="M336.656 34.2553C336.656 36.1412 336.189 37.5905 335.253 38.6031C334.318 39.6157 332.978 40.1222 331.232 40.1226C329.487 40.1226 328.146 39.6161 327.211 38.6031C326.277 37.5901 325.809 36.1354 325.809 34.2391C325.809 32.3432 326.278 30.8949 327.215 29.8942C328.153 28.8935 329.497 28.3932 331.248 28.3932C332.998 28.3932 334.337 28.897 335.265 29.9046C336.193 30.9122 336.656 32.3625 336.656 34.2553ZM328.343 34.2553C328.272 35.2665 328.526 36.274 329.068 37.1309C329.322 37.4564 329.653 37.7145 330.031 37.8829C330.408 38.0512 330.821 38.1247 331.234 38.0968C333.161 38.0968 334.125 36.8163 334.125 34.2553C334.124 31.6943 333.166 30.4111 331.249 30.4057C330.835 30.3783 330.42 30.4522 330.041 30.6212C329.662 30.7902 329.329 31.0492 329.073 31.3756C328.527 32.2324 328.271 33.2419 328.342 34.2553H328.343Z" fill="white"/>
<path d="M346.872 39.9673H344.496V34.8782C344.53 34.3838 344.413 33.8907 344.161 33.4643C344.036 33.3027 343.873 33.1748 343.687 33.0923C343.5 33.0099 343.296 32.9757 343.093 32.9927C342.815 32.9686 342.536 33.0175 342.283 33.1343C342.03 33.2511 341.812 33.4319 341.65 33.6589C341.3 34.3399 341.146 35.1049 341.205 35.8683V39.9673H338.83V31.2549H340.645L340.965 32.3697H341.097C341.36 31.9501 341.742 31.6179 342.194 31.4148C342.692 31.1921 343.234 31.0817 343.78 31.0916C344.2 31.0611 344.623 31.1185 345.021 31.26C345.418 31.4015 345.782 31.6241 346.089 31.9137C346.652 32.5707 346.935 33.4229 346.876 34.2864L346.872 39.9673Z" fill="white"/>
<path d="M351.696 39.9673H349.319V27.8436H351.696V39.9673Z" fill="white"/>
<path d="M354.088 29.0028C354.088 28.2292 354.519 27.8422 355.382 27.8418C356.244 27.8414 356.675 28.2284 356.675 29.0028C356.685 29.161 356.661 29.3194 356.605 29.4677C356.549 29.6161 356.463 29.7511 356.352 29.8641C356.081 30.0883 355.733 30.1986 355.382 30.1719C354.519 30.1719 354.088 29.7822 354.088 29.0028ZM356.566 39.9673H354.189V31.2549H356.566V39.9673Z" fill="white"/>
<path d="M367.102 39.9673H364.725V34.8782C364.759 34.3838 364.642 33.8907 364.39 33.4643C364.265 33.3026 364.103 33.1747 363.916 33.0923C363.73 33.0099 363.525 32.9756 363.322 32.9927C363.044 32.9688 362.765 33.0177 362.512 33.1345C362.259 33.2513 362.041 33.4321 361.879 33.6589C361.529 34.3401 361.376 35.1049 361.435 35.8683V39.9673H359.058V31.2549H360.874L361.193 32.3697H361.326C361.589 31.95 361.971 31.6178 362.423 31.4148C362.921 31.1921 363.463 31.0817 364.009 31.0915C364.429 31.061 364.852 31.1183 365.25 31.2598C365.647 31.4014 366.011 31.624 366.318 31.9136C366.882 32.5706 367.164 33.4228 367.105 34.2864L367.102 39.9673Z" fill="white"/>
<path d="M373.492 40.1226C372.893 40.1582 372.294 40.0738 371.729 39.8744C371.164 39.6751 370.644 39.3647 370.201 38.9616C369.789 38.5234 369.471 38.0052 369.267 37.4392C369.063 36.8731 368.978 36.2712 369.016 35.6709C368.938 34.4439 369.33 33.2333 370.113 32.2855C370.502 31.8796 370.973 31.5626 371.496 31.3561C372.018 31.1496 372.579 31.0586 373.141 31.0892C373.666 31.0578 374.193 31.1349 374.688 31.3159C375.182 31.4969 375.634 31.7778 376.016 32.1411C376.372 32.5325 376.647 32.9912 376.825 33.4902C377.002 33.9892 377.078 34.5186 377.048 35.0474V36.202H371.429C371.42 36.7866 371.635 37.3527 372.03 37.7839C372.239 37.9812 372.487 38.1335 372.758 38.2314C373.028 38.3293 373.316 38.3707 373.604 38.3531C374.104 38.3556 374.604 38.3007 375.092 38.1897C375.597 38.0668 376.088 37.8917 376.557 37.6672V39.5066C376.134 39.7158 375.686 39.871 375.225 39.9684C374.654 40.0794 374.073 40.1311 373.492 40.1226ZM373.157 32.7819C372.936 32.7703 372.716 32.8072 372.511 32.89C372.306 32.9727 372.122 33.0995 371.972 33.2611C371.661 33.6469 371.488 34.1258 371.481 34.6213H374.816C374.838 34.1261 374.673 33.641 374.355 33.2611C374.201 33.1004 374.014 32.9744 373.808 32.8918C373.601 32.8091 373.379 32.7717 373.157 32.7819Z" fill="white"/>
<path d="M387.705 39.9673H385.29V30.5852H382.196V28.5739H390.798V30.5852H387.705V39.9673Z" fill="white"/>
<path d="M396.308 40.1226C395.71 40.1582 395.111 40.0738 394.546 39.8744C393.981 39.6751 393.461 39.3647 393.018 38.9616C392.606 38.5234 392.288 38.0052 392.084 37.4392C391.88 36.8731 391.795 36.2712 391.833 35.6709C391.755 34.4439 392.147 33.2333 392.93 32.2855C393.319 31.8796 393.79 31.5626 394.313 31.3561C394.835 31.1496 395.396 31.0586 395.957 31.0892C396.483 31.0578 397.01 31.1349 397.504 31.3159C397.999 31.4969 398.451 31.7778 398.832 32.1411C399.189 32.5328 399.463 32.9916 399.64 33.4906C399.816 33.9896 399.892 34.5189 399.861 35.0474V36.202H394.243C394.233 36.7865 394.448 37.3525 394.843 37.7839C395.052 37.9811 395.3 38.1334 395.571 38.2313C395.842 38.3292 396.13 38.3707 396.417 38.3531C396.918 38.3556 397.417 38.3007 397.905 38.1897C398.411 38.0668 398.902 37.8917 399.371 37.6672V39.5066C398.948 39.7158 398.5 39.871 398.038 39.9684C397.468 40.0792 396.889 40.1309 396.308 40.1226ZM395.974 32.7819C395.753 32.7703 395.533 32.8072 395.328 32.89C395.123 32.9727 394.939 33.0995 394.789 33.2611C394.478 33.6469 394.305 34.1258 394.298 34.6213H397.633C397.655 34.1261 397.49 33.641 397.172 33.2611C397.018 33.1004 396.831 32.9744 396.624 32.8918C396.418 32.8091 396.196 32.7717 395.974 32.7819Z" fill="white"/>
<path d="M407.873 37.3797C407.896 37.7701 407.823 38.1602 407.661 38.5161C407.498 38.8719 407.252 39.1826 406.942 39.4211C406.112 39.9465 405.135 40.1924 404.155 40.1226C403.612 40.1301 403.07 40.0872 402.535 39.9944C402.104 39.9134 401.684 39.7866 401.28 39.6162V37.6534C401.76 37.8737 402.26 38.0476 402.772 38.1729C403.249 38.3024 403.74 38.373 404.233 38.3831C405.096 38.3831 405.527 38.1329 405.527 37.6326C405.53 37.5489 405.517 37.4654 405.487 37.3872C405.457 37.3089 405.412 37.2375 405.354 37.1771C405.177 37.0163 404.977 36.8823 404.762 36.7793C404.481 36.6307 404.107 36.4575 403.64 36.2597C403.119 36.059 402.623 35.7972 402.163 35.4797C401.87 35.2669 401.634 34.9844 401.477 34.6576C401.324 34.2972 401.251 33.9078 401.263 33.5163C401.248 33.165 401.323 32.8158 401.48 32.5014C401.638 32.1871 401.873 31.9181 402.163 31.7197C402.929 31.2519 403.819 31.0302 404.715 31.0846C405.774 31.0867 406.819 31.3206 407.778 31.7699L407.061 33.4845C406.624 33.2975 406.216 33.1435 405.837 33.0227C405.462 32.9037 405.07 32.8431 404.676 32.8431C403.975 32.8431 403.624 33.0329 403.624 33.4124C403.629 33.5258 403.662 33.6361 403.722 33.7329C403.781 33.8296 403.864 33.9097 403.963 33.9654C404.436 34.24 404.933 34.4719 405.447 34.6582C405.976 34.8535 406.478 35.1127 406.943 35.4301C407.24 35.645 407.481 35.9284 407.645 36.2562C407.806 36.6084 407.884 36.9927 407.873 37.3797Z" fill="white"/>
<path d="M413.398 38.2295C413.907 38.2133 414.411 38.1213 414.894 37.9565V39.7236C414.202 40.007 413.459 40.1421 412.712 40.1203C412.334 40.1547 411.953 40.1082 411.595 39.984C411.237 39.8597 410.909 39.6606 410.634 39.3998C410.156 38.7847 409.924 38.0138 409.983 37.2371V33.0394H408.847V32.0337L410.155 31.2399L410.841 29.4006H412.361V31.2549H414.8V33.0394H412.361V37.2412C412.35 37.3795 412.369 37.5188 412.418 37.6487C412.467 37.7786 412.545 37.8958 412.645 37.9917C412.859 38.1593 413.126 38.2438 413.398 38.2295Z" fill="white"/>
</svg>
