<?xml version="1.0" encoding="utf-8"?>
<!-- Generator: Adobe Illustrator 27.8.1, SVG Export Plug-In . SVG Version: 6.00 Build 0)  -->
<svg version="1.1" id="Layer_1" xmlns="http://www.w3.org/2000/svg" xmlns:xlink="http://www.w3.org/1999/xlink" x="0px" y="0px"
	 viewBox="0 0 475 199" style="enable-background:new 0 0 475 199;" xml:space="preserve">
<style type="text/css">
	.st0{fill:#FF4C56;}
	.st1{fill-rule:evenodd;clip-rule:evenodd;fill:#FF4C56;}
</style>
<path class="st0" d="M182.2,73V7.5h13.1v27h12.4l16.3-27h15.2l-20.9,32.6L241,73h-16.3l-17.5-27.6h-12V73H182.2z"/>
<path class="st0" d="M247.7,73V7.5h12.5v23.8c3.3-4.5,8.4-6.1,14.3-6.1c10.4,0,16,6.8,16,18.6V73H278V44.1c0-6-3.2-8.5-8.4-8.5
	c-5.2,0-9.4,3.7-9.4,10.7V73H247.7z"/>
<path class="st0" d="M301.2,73V26.4h12.5V73H301.2z M300.8,20.4V7.5h13.3v12.9H300.8z"/>
<path class="st0" d="M324.3,73V7.5h12.5V73H324.3z"/>
<path class="st0" d="M363.1,74.2c-10.6,0-16.7-5.7-16.7-19.3v-8.8c0-13.9,7.6-21,23.2-21c8,0,16.1,2.2,21.6,5.1V73h-9.5l-2.2-8
	C376.7,71.1,370.9,74.2,363.1,74.2z M359,54.7c0,6.3,2.5,9.1,8.6,9.1c5.8,0,11.1-4.5,11.1-10.3V37.2c-3.1-1.2-5.5-1.5-9.5-1.5
	c-7.3,0-10.3,3.3-10.3,9.8V54.7z"/>
<path class="st0" d="M417.5,74.2c-10.6,0-16.7-5.7-16.7-19.3v-8.8c0-13.9,7.6-21,23.2-21c3.1,0,6.2,0.3,9.2,0.8V7.5h12.5V73h-9.5
	l-1.8-9.1C431.8,70.8,425.8,74.2,417.5,74.2z M413.4,54.7c0,6.3,2.5,9.1,8.6,9.1c6.4,0,11.2-4.2,11.2-11.1V37.2
	c-3.2-1.2-5.6-1.5-9.5-1.5c-7.3,0-10.3,3.3-10.3,9.8V54.7z"/>
<path class="st0" d="M456.4,73V26.4h12.5V73H456.4z M456,20.4V7.5h13.3v12.9H456z"/>
<path class="st0" d="M181.2,188V87.3h42.6c27.2,0,44.9,10.8,44.9,35.7v7.6c0,24.6-17.6,35.7-44.9,35.7h-10.9V188H181.2z M212.8,141
	h10.9c5.6,0,13.2-1.3,13.2-13.1v-2.3c0-11.8-7.6-12.9-13.2-12.9h-10.9V141z"/>
<path class="st0" d="M275.3,188V87.3h58.4c24.6,0,35.1,11.9,35.1,28.9c0,14.7-7.9,22.6-20.1,29.5l26,42.3H338l-16.1-29.1l-15,7.3
	V188H275.3z M307,137.2l18.8-8.9c6.6-3.2,9.9-6,9.9-10.2c0-3.7-3-5.5-8.9-5.5H307V137.2z"/>
<path class="st0" d="M425.2,189.9c-32.2,0-48.9-12.7-48.9-37.1v-30.2c0-24.5,16.7-37.1,48.9-37.1s48.9,12.7,48.9,37.1v30.2
	C474.2,177.2,457.5,189.9,425.2,189.9z M408,149.9c0,10.4,4.7,14.7,17.3,14.7c12.7,0,17.3-4.3,17.3-14.7v-24.5
	c0-10.4-4.6-14.7-17.3-14.7c-12.5,0-17.3,4.3-17.3,14.7V149.9z"/>
<g>
	<path class="st1" d="M24.3,168.2c23.1,23.4,54.5,24.6,54.5,24.6c95.8-7.6,86.8-98.5,54-135.2c-2.7,18.6-19.7,21.8-19.7,21.8
		C137.9,27.8,53.1,0,53.1,0c9.8,25.8-2.8,39.1-17.8,54.9C20,71.1,2.2,89.8,3,127.1c2.7,12.5,7.2,22.6,12.8,30.7l3.9,5.2L24.3,168.2
		L24.3,168.2z M24.3,168.2l39.3-39.3l-7.4-11.6l-40.5,40.5c1.2,1.7,3,4,3.9,5.2C22.3,166,22.7,166.4,24.3,168.2z M84,53.2
		c0.9,0,1.8,0.5,2.4,1.2L95.5,68l-10.3,9.3l-6.1-9c-0.5-0.8-1.4-1.2-2.4-1.2l-29,0.1l-7.8-13.7L84,53.2z M87.1,86.5l13-11.7
		l7.1,10.6l-25.3,25.3c-1,0.9-1.1,2.4-0.4,3.6l28.6,43c1.2,1.9-0.1,4.4-2.3,4.4l-59.6,0.3l13.6-13.6l24.5-0.1c0.6,0,0.9-0.6,0.6-1.1
		l-23-34.2c-0.8-1.1-0.6-2.6,0.3-3.6L87.1,86.5z M115.5,124.9c1.1,1.9,3.7,1.9,4.9,0.1l25.9-41.8l-16.3,0L118.6,101
		c-0.3,0.5-0.9,0.4-1.2,0l-4.7-8.3l-9.9,9.9L115.5,124.9z"/>
</g>
</svg>
