<svg width="183" height="39" viewBox="0 0 183 39" fill="none" xmlns="http://www.w3.org/2000/svg">
<path d="M7.54846 10.0064V13.7935H3.76135V20.9041C3.76135 22.0891 4.17356 23.1196 5.02372 23.944C5.84813 24.7685 6.85287 25.2064 8.03796 25.2064V28.9935C5.7966 28.9935 3.89016 28.1949 2.3444 26.6491C0.798641 25.1034 0 23.1454 0 20.9041V0.5H3.78711V10.0064H7.54846Z" fill="#27272A"/>
<path d="M21.3048 29.0197C18.677 29.0197 16.4356 28.118 14.5807 26.2373C12.7258 24.3824 11.7983 22.1411 11.7983 19.5133C11.7983 16.8855 12.7 14.6441 14.5807 12.7892C16.4356 10.9343 18.677 10.0068 21.3048 10.0068C23.3916 10.0068 25.298 10.6509 26.9983 11.9133V10.0068H30.7854V28.9939H28.879L26.9726 27.0875C25.3237 28.3756 23.4173 29.0197 21.3048 29.0197ZM21.3048 25.2068C22.8505 25.2068 24.2417 24.64 25.3237 23.5322C26.4315 22.4245 26.9983 21.059 26.9983 19.5133C26.9983 17.9675 26.4315 16.5763 25.3237 15.4943C24.216 14.3865 22.8505 13.8197 21.3048 13.8197C19.759 13.8197 18.3678 14.3865 17.2858 15.4943C16.178 16.6021 15.6112 17.9675 15.6112 19.5133C15.6112 21.059 16.178 22.4502 17.2858 23.5322C18.3936 24.6143 19.7332 25.2068 21.3048 25.2068Z" fill="#27272A"/>
<path d="M49.7996 27.1133C48.0993 28.3756 46.1928 29.0197 44.106 29.0197C41.4782 29.0197 39.2369 28.118 37.382 26.2373C35.5271 24.3824 34.5996 22.1411 34.5996 19.5133C34.5996 16.8855 35.5013 14.6441 37.382 12.7892C39.2369 10.9343 41.4782 10.0068 44.106 10.0068C46.2443 10.0068 48.125 10.6509 49.7996 11.9133L51.706 10.0068H53.6125V28.9939C53.6125 31.5702 52.7108 33.8116 50.8301 35.718C48.9752 37.5729 46.7338 38.5004 44.106 38.5004C41.4782 38.5004 39.2369 37.5987 37.382 35.718L40.0871 33.0129C41.1949 34.1207 42.5603 34.6875 44.106 34.6875C45.6518 34.6875 47.043 34.1207 48.125 33.0129C49.2328 31.9051 49.7996 30.5397 49.7996 28.9939V27.1133ZM44.106 25.2068C45.6518 25.2068 47.043 24.64 48.125 23.5322C49.2328 22.4244 49.7996 21.059 49.7996 19.5133C49.7996 17.9675 49.2328 16.5763 48.125 15.4943C47.0172 14.3865 45.6518 13.8197 44.106 13.8197C42.5603 13.8197 41.1691 14.3865 40.0871 15.4943C38.9793 16.6021 38.4125 17.9675 38.4125 19.5133C38.4125 21.059 38.9793 22.4502 40.0871 23.5322C41.1691 24.64 42.5345 25.2068 44.106 25.2068Z" fill="#27272A"/>
<path d="M70.8219 15.7253C69.7141 14.6175 68.3745 14.1022 66.8287 14.1022C65.2829 14.1022 63.969 14.6433 62.887 15.7253C61.7792 16.8073 61.1867 18.0955 61.1609 19.6155L61.2124 29.3538L57.4253 29.3795L57.3223 10.3924H59.2287L61.1351 12.2731C62.8355 11.0107 64.7419 10.3409 66.8287 10.3409C69.946 10.3151 72.4965 11.5517 74.4545 14.1022C76.3351 11.5517 78.8856 10.2894 82.0287 10.2636C84.6565 10.2378 86.8978 11.1395 88.7785 12.9944C90.6592 14.8494 91.5866 17.0907 91.5866 19.6927L91.6382 29.1992L87.851 29.2249L87.7995 19.7185C87.7995 18.1727 87.207 16.8073 86.0992 15.6995C84.9914 14.5917 83.626 14.0507 82.0544 14.0507C80.4829 14.0507 79.1433 14.6433 78.0355 15.7511C76.9277 16.8589 76.3867 18.2243 76.3867 19.7958L76.4382 29.3022L72.6511 29.328L72.5995 19.8216C72.548 18.147 71.9812 16.8331 70.8219 15.7253ZM104.932 29.0961C102.304 29.1219 100.063 28.2202 98.1819 26.3653C96.3012 24.5104 95.3737 22.269 95.3737 19.667C95.348 17.0392 96.2497 14.7978 98.1046 12.9172C99.9595 11.0365 102.201 10.109 104.803 10.109C106.89 10.109 108.796 10.7273 110.522 11.9639V10.0575L114.309 10.0317L114.412 29.0188H112.506L110.599 27.1382C108.951 28.4263 107.044 29.0961 104.932 29.0961ZM104.906 25.309C106.452 25.309 107.817 24.7165 108.925 23.6087C110.033 22.5009 110.574 21.1355 110.574 19.5639C110.574 18.0182 109.981 16.6527 108.873 15.5449C107.766 14.4371 106.4 13.8961 104.829 13.8961C103.283 13.8961 101.917 14.4887 100.81 15.5965C99.7019 16.7043 99.1609 18.0697 99.1609 19.6412C99.1609 21.187 99.7534 22.5524 100.861 23.6602C101.969 24.768 103.334 25.309 104.906 25.309ZM121.961 19.2805L122.012 29.0188L118.225 29.0446L118.122 10.0575H120.029L121.935 11.9382C123.635 10.6758 125.542 10.006 127.629 10.006C130.256 9.9802 132.498 10.8819 134.378 12.7368C136.259 14.5917 137.187 16.8331 137.187 19.4351L137.238 28.9415L133.451 28.9673L133.399 19.4609C133.399 17.9151 132.807 16.5497 131.699 15.4419C130.591 14.3341 129.226 13.7931 127.654 13.7931C126.109 13.7931 124.795 14.3341 123.713 15.4161C122.605 16.4724 121.987 17.7605 121.961 19.2805ZM156.199 26.9063C154.499 28.1687 152.593 28.8385 150.506 28.8385C147.878 28.8643 145.637 27.9626 143.756 26.1076C141.875 24.2527 140.948 22.0114 140.948 19.4093C140.922 16.7816 141.824 14.5402 143.679 12.6595C145.534 10.7789 147.775 9.8514 150.377 9.8514C152.515 9.8514 154.396 10.4697 156.096 11.7063L157.977 9.79987H159.884L159.987 28.787C160.012 31.3632 159.111 33.6304 157.256 35.5368C155.401 37.4175 153.159 38.3449 150.557 38.3449C147.93 38.3707 145.688 37.469 143.808 35.6141L146.487 32.909C147.595 34.0168 148.96 34.5578 150.532 34.5578C152.077 34.5578 153.443 33.9653 154.551 32.8575C155.658 31.7497 156.199 30.3843 156.199 28.8127V26.9063ZM150.506 25.0514C152.052 25.0514 153.417 24.4588 154.525 23.351C155.633 22.2433 156.174 20.8778 156.174 19.3063C156.174 17.7605 155.581 16.3951 154.473 15.2873C153.366 14.1795 152 13.6385 150.429 13.6385C148.857 13.6385 147.517 14.231 146.41 15.3388C145.302 16.4466 144.761 17.8121 144.761 19.3836C144.761 20.9294 145.353 22.2948 146.461 23.4026C147.569 24.5104 148.934 25.0514 150.506 25.0514ZM173.203 9.69683C175.831 9.67106 178.072 10.5728 179.953 12.4277C181.833 14.2826 182.761 16.5239 182.761 19.126C182.787 21.7538 181.885 23.9951 180.03 25.8758C178.175 27.7565 175.934 28.6839 173.332 28.6839C170.704 28.7097 168.462 27.808 166.582 25.9531C164.701 24.0982 163.774 21.8568 163.774 19.2548C163.748 16.627 164.65 14.3856 166.505 12.5049C168.359 10.65 170.575 9.72259 173.203 9.69683ZM173.306 24.8968C174.852 24.8968 176.217 24.3043 177.325 23.1965C178.433 22.0887 178.974 20.7232 178.974 19.1517C178.974 17.606 178.381 16.2405 177.273 15.1327C176.166 14.025 174.8 13.4839 173.229 13.4839C171.683 13.4839 170.317 14.0765 169.21 15.1843C168.102 16.2921 167.561 17.6575 167.561 19.229C167.561 20.7748 168.153 22.1402 169.261 23.248C170.369 24.3558 171.734 24.9226 173.306 24.8968Z" fill="url(#paint0_linear_613_12567)"/>
<defs>
<linearGradient id="paint0_linear_613_12567" x1="57.3967" y1="24.6347" x2="182.792" y2="23.9047" gradientUnits="userSpaceOnUse">
<stop stop-color="#E64A2D"/>
<stop offset="0.2542" stop-color="#E6482D"/>
<stop offset="0.3403" stop-color="#E6422E"/>
<stop offset="0.4428" stop-color="#E7472D"/>
<stop offset="0.57" stop-color="#E9572C"/>
<stop offset="0.7104" stop-color="#EC7029"/>
<stop offset="0.8591" stop-color="#F19326"/>
<stop offset="1" stop-color="#F6BB22"/>
</linearGradient>
</defs>
</svg>
